<mxfile host="65bd71144e">
    <diagram id="j9EcNvFsQIpEofu-NuQU" name="ページ1">
        <mxGraphModel dx="917" dy="395" grid="1" gridSize="10" guides="1" tooltips="1" connect="1" arrows="1" fold="1" page="1" pageScale="1" pageWidth="827" pageHeight="1169" math="0" shadow="0">
            <root>
                <mxCell id="0"/>
                <mxCell id="1" parent="0"/>
                <mxCell id="102" value="AWS Cloud" style="points=[[0,0],[0.25,0],[0.5,0],[0.75,0],[1,0],[1,0.25],[1,0.5],[1,0.75],[1,1],[0.75,1],[0.5,1],[0.25,1],[0,1],[0,0.75],[0,0.5],[0,0.25]];outlineConnect=0;gradientColor=none;html=1;whiteSpace=wrap;fontSize=12;fontStyle=0;container=0;pointerEvents=0;collapsible=0;recursiveResize=0;shape=mxgraph.aws4.group;grIcon=mxgraph.aws4.group_aws_cloud_alt;strokeColor=#232F3E;fillColor=none;verticalAlign=top;align=left;spacingLeft=30;fontColor=#232F3E;dashed=0;" parent="1" vertex="1">
                    <mxGeometry x="120" y="80" width="920" height="560" as="geometry"/>
                </mxCell>
                <mxCell id="106" value="ap-northeast-1" style="points=[[0,0],[0.25,0],[0.5,0],[0.75,0],[1,0],[1,0.25],[1,0.5],[1,0.75],[1,1],[0.75,1],[0.5,1],[0.25,1],[0,1],[0,0.75],[0,0.5],[0,0.25]];outlineConnect=0;gradientColor=none;html=1;whiteSpace=wrap;fontSize=12;fontStyle=0;container=1;pointerEvents=0;collapsible=0;recursiveResize=0;shape=mxgraph.aws4.group;grIcon=mxgraph.aws4.group_region;strokeColor=#00A4A6;fillColor=none;verticalAlign=top;align=left;spacingLeft=30;fontColor=#147EBA;dashed=1;" parent="1" vertex="1">
                    <mxGeometry x="160" y="120" width="840" height="480" as="geometry"/>
                </mxCell>
                <mxCell id="113" value="" style="points=[[0,0],[0.25,0],[0.5,0],[0.75,0],[1,0],[1,0.25],[1,0.5],[1,0.75],[1,1],[0.75,1],[0.5,1],[0.25,1],[0,1],[0,0.75],[0,0.5],[0,0.25]];outlineConnect=0;gradientColor=none;html=1;whiteSpace=wrap;fontSize=12;fontStyle=0;container=0;pointerEvents=0;collapsible=0;recursiveResize=0;shape=mxgraph.aws4.group;grIcon=mxgraph.aws4.group_vpc2;strokeColor=#8C4FFF;fillColor=none;verticalAlign=top;align=left;spacingLeft=30;fontColor=#AAB7B8;dashed=0;" parent="106" vertex="1">
                    <mxGeometry x="40" y="39" width="760" height="241" as="geometry"/>
                </mxCell>
                <mxCell id="156" style="edgeStyle=orthogonalEdgeStyle;html=1;exitX=1;exitY=0.5;exitDx=0;exitDy=0;exitPerimeter=0;entryX=0;entryY=0.5;entryDx=0;entryDy=0;entryPerimeter=0;" parent="106" source="130" target="131" edge="1">
                    <mxGeometry relative="1" as="geometry"/>
                </mxCell>
                <mxCell id="161" value="/api" style="edgeLabel;html=1;align=center;verticalAlign=middle;resizable=0;points=[];" parent="156" vertex="1" connectable="0">
                    <mxGeometry x="-0.2877" y="2" relative="1" as="geometry">
                        <mxPoint as="offset"/>
                    </mxGeometry>
                </mxCell>
                <mxCell id="130" value="" style="sketch=0;points=[[0,0,0],[0.25,0,0],[0.5,0,0],[0.75,0,0],[1,0,0],[0,1,0],[0.25,1,0],[0.5,1,0],[0.75,1,0],[1,1,0],[0,0.25,0],[0,0.5,0],[0,0.75,0],[1,0.25,0],[1,0.5,0],[1,0.75,0]];outlineConnect=0;fontColor=#232F3E;fillColor=#8C4FFF;strokeColor=#ffffff;dashed=0;verticalLabelPosition=bottom;verticalAlign=top;align=center;html=1;fontSize=12;fontStyle=0;aspect=fixed;shape=mxgraph.aws4.resourceIcon;resIcon=mxgraph.aws4.elastic_load_balancing;" parent="106" vertex="1">
                    <mxGeometry x="240" y="121" width="78" height="78" as="geometry"/>
                </mxCell>
                <mxCell id="108" value="" style="sketch=0;points=[[0,0,0],[0.25,0,0],[0.5,0,0],[0.75,0,0],[1,0,0],[0,1,0],[0.25,1,0],[0.5,1,0],[0.75,1,0],[1,1,0],[0,0.25,0],[0,0.5,0],[0,0.75,0],[1,0.25,0],[1,0.5,0],[1,0.75,0]];outlineConnect=0;fontColor=#232F3E;fillColor=#ED7100;strokeColor=#ffffff;dashed=0;verticalLabelPosition=bottom;verticalAlign=top;align=center;html=1;fontSize=12;fontStyle=0;aspect=fixed;shape=mxgraph.aws4.resourceIcon;resIcon=mxgraph.aws4.ec2;" parent="106" vertex="1">
                    <mxGeometry x="681" y="120" width="78" height="78" as="geometry"/>
                </mxCell>
                <mxCell id="109" value="" style="shape=image;verticalLabelPosition=bottom;labelBackgroundColor=default;verticalAlign=top;aspect=fixed;imageAspect=0;image=data:image/png,iVBORw0KGgoAAAANSUhEUgAAAgAAAAIACAYAAAD0eNT6AAAACXBIWXMAAAsTAAALEwEAmpwYAAAgAElEQVR4nO3de7gfVXXw8Zn55ex9khBuKqIU8AJWRa2I1gugVNDaCi9eiIpaW7Xm8UWRhuTM/gW1x9ZKFSvetaCtFfHSqEWxb0zy2/vMnnNCRIgUa8TiBVCpBQTlKuGSrPeZk1hvXHJyZmbP5ft5nvWPj605e9astX57blEEAAAAAAAAAAAAAAAAAAAAAAAAAAAAAAAAAAAAAAAAAAAAAAAAAAAAAAAAAAAAAAAAAAAAAAAAAAAAAAAAAAAAAAAAAAAAAAAAAAAAAAAAAAAAAAAAAAAAAAAAAAAAAAAAAAAAAAAAAAAAAAAAAAAAAAAAAAAAAAAAAAAAAAAAAAAAAAAAAAAAAAAAAAAAAAAAAAAAAAAAAAAAAAAAAADQCivWLY7M6IDIjA4dpPY5ydCdmAynls2GsSuSoTWJsafFqXvnbBj7/ji1Z20P97k4datnw9izf+0/n/3vFv93ydC+PhmOXlr8/44msidHw9EjZv83AQBA2SSOTssfEg1HT09S+7Kiicep+9D2Ru2mEuO+maTu6iS1tyfGSZiwNyfGXVb8e+LUfSpO7RlJat84MFPPj9L1j4kms3HyAgCA31b8ih5OHZYY9/LEuLfEqftYbNz6JHWXJ8ZtCdfYS4zU/iQxbqbYXUjS0amDdOqPoxXuQJIBANB9y9fuHZnREUnqXhcb9544dV9NUntlYuy24A065O5B6i6KjfuXYndjMHTPnV0nAABaZ+nqQbTKPjYx9pVxas/csVV/bfhm26awm4udkOL+hWjCPilatmks9GEFAOA3TbjfT1L36ti4DybGXpAYd2v4BtqxKO5xSN3GJLWT0XD0lGhyMiENAQD1Stc/prgjPjbuszuubYdvkP2La+PUfnJgpo5ndwAAUI3JNbsXj7/Fqf1MkrprGtD8iF9fg9ReF6fufdHK7ImcAgCA+ZlY/9Dtv/Lt2iR1d9B0WzN0fKN4/8HsfRgAAOyUyfMXJenoz4vH1fp9Z34Xwn6/GOB4BwEA4N6Z0aGxsR9OjLsxfOMiSl2D4h6N1L6WmwYBADtIPJgYHZuk9kKabi+Gjm9EE/ZI0h8Aet347QtmrxWHb0pErWtgtxXfPIhWTT8odBYCAGo0mLB/lKT2UhpvzweP1F0zMPY4Tj4A6Lrla/cuvmzHjX0NaL4NitjYc6KJDUtCpycAoALFG/qS1F0futkQDV2D1H4nGmYHcfIBQFdMZuOzH5gJ3WCINqzBDYOJqaNDpywAYL5Wukcmxn2zAY2FaM0a2Dtn3xsAAGingXHPTlL7s/ANhWjpGgxD5zAAYK7M6Igktbc0oIkQbV6D1L2Vkw8A2iJ1z6D5N6B5dibsX4dOaQDA/TGjQxNjbw7fNIiOrcH/5eQDgKY6Jdtz9sMv4ZsF0bU1SO1dg+HomNApDgD4HRLHxn4xeKMgursGqbspSt0hnHwA0CBJOvWm4A2C6P4apO7yaDLbLXS+AwAKK9btw+d7G9AcexKxsWdz4gFAA8TGfTx0UyD6tQYDM/Xi0HkPAP22MntiYtzdoRsC0bM1SO110Sr74NDpDwC9Fafu34I3A6KXaxCn7hOh8x8A+smMDigezwrdCIierkHqtkYT2ZNDnwYA0DuxsacHbwJEz9fA+tDnAQD0y+RqVVyHDd8AiL6vwcDYF4Y+HQCgNwapfU7owk+wBjty4BuhzwcA6I04tR+gAdOAm5IDkRkdFfqcAIBe4J3/4Zse8as1iI39cuhzAgC6L13/GJoPDbhxTwQMR48KfWoAQKclxr0meMEnWIPfyoE4de8IfW4AQKfFxn6YBkwDblwOpO4HxVcpQ58fANBZSeouCl7sCdbgHnIgGk4dFvr8AIBuWrZpLEnt7TRgGnATcyA27l2hTxEA6KaV7pGhizzBGtxHDlwW+hQBgE4aDEfH0IBpwM3NAbstWjX9oNDnCQB0TmLsX4Yv8gRrcO85MDBTx4c+TwCgc+LUvj1Y80nd1jh1WWLsaYOJqaOjN6/dP1qxbvHsP+yUbM/i/QSD1J6w/S2F9iqaZD8HpTi1Z4Q+TwCgc4pvsNff+O0tsbHvLj4/vPP/Uol3fK/g66EbElH3GtgLqjwHAKCX4tR+qdZfc8Z9PppY/9Bd/xdLPBi6pewI9GoQuaHMnAcAbL8HwNdSxFN3R3G/QWmLfmr2wCS1eQOaE1HDGkTDmb04YQGgRElqL62+gNtfFNv3pR+4ydUqyCUMovY1iIajp5SePwDQZ0nqflRx89+WGPfyyv6AyckkNu4rNOWODybD0UsryyEA6KPE2J9WWbhjY0+v/I8woz2KF8YEb1JElWswUXkeAUCfJMbdWGHR/nrxC72WP2TCPql4rJAm3M1BJE7d39SSRwDQF4lxt1ZVtKPh1FPr/Fvi1H0qdKMiKhoAjHtPnbkEAJ23/e78Sn6xjWr/Y1a4AxPjttCEuzeIxKk9q/Z8AoAu23GTXukFu3iDX4i/J07tF0I3K6KCAcC4c0PkEwB0lMSVNKvU3RZNZuMh/qLtLwmiCXdtDWZfIAUAaPYAEBtrgx2j4gVBFe1qEAwAANARFQ0AqfuHbr/bgGAHAABaraJLAMa+IeRftf0LgzTpLq0BlwAAoA0DwIT7sz594IhgAACAlqlsB+CVIf+q2LjzaMrdGkzYAQCAVuwATJ0U8kDFxk2FblgEAwAA9PAmQHtGyL8qMfYqGnC3hhB2AACgHY8Brg12oIYze/FNgPANmwEAAHr5IiB7S7Rs01iIv2hg7AtDNyuCAQAAenoToJOBsceF+Iti4z5LA+7eEMIlAABoyQAQp+782g/WinX7JMb+InSzIhgAAKC3A0DxOt5opX1CnX9NbOy7ab7dHEDYAQCA1gwAszFd/G/UctAm1h/Mp4DDN2oGAABohcoHgCJOrvzPWL5xYWLsxaGbFMEAAAAtUcsAsCUyo6Oq/BtiY79I8+32AMIlAABo3wBQxI3RqqnDSz94k9mC2NgPh25OBAMAALRMbQOAJKm7LRm6E0v7py9fu3ds3Hqabz8GEHYAAKCtA8AvC3lqP1k8rjeff/Vgwr4gSd0PQjclggEAAFqq/gFgR9wYp+4d0Wl2v7n8WwfGPTsx9gIab/+GD3YAAKAbA8D2SN3W2S/3pW7VYGLq6OjNa/ePJrPdZh8dHM7sFaXukEFqT4hT+4EktVeGbkIEAwAAdETgAYBgDdgBAIAQGAAYQtoxhHAJAABKxQAQurERDAAAEAADAA24HUMIOwAAUCoGgNCNjWAAAIAAGABowO0YQtgBAIBSMQCEbmwEAwAABMAAQANuxxDCDgAAlIoBIHRjIxgAACAABgAacDuGEHYAAKBUDAChGxvBAAAAATAA0IDbMYSwAwAApWIACN3YCAYAAAiAAYAG3I4hhB0AACgVA0DoxkYwAABAAAwANOB2DCHsAAAAA0DwZkQwAABAy7EDQDNvx0DDDgAAlIoBIHRjIxgAACAABgAacDuGEHYAAKBUDAChGxvBAAAAQQyGbikRZg2S1L2EASDcACASxZLr1c0N9Unx6qOS63dKrt4iXp0q0+oEmR57gmTReNnrAQCoDTswDRgApJXh9VbJ1VXi1TrJ1Vtlevxw2RSNlb1GAIBKMAAwAJQ6GNwiuV4juX6DbIz25qQFgMZiAGAAqGyXYIt4/RXxaqlk0YLQmQ4A+A0MAAwAdVwyUFdJpl/HJQIAaAwGAAaAOu8dKO4Z0MvYEQCA4BgAGACC3ER4meTjzwid/QDQYwwADADBniLYJrk6S7Jot9BnAQD0EAMAA0DoQUBdIX78yNBnAgD0DAMAA0Aj4i7xyoQ+GwCgRxgAGACCN/9f3w34lGyMFoY+KwCgBxgAGACaFmpGRtEeoc8MAOg4BgAGgCbuBOhvyGjJA0KfHQDQYQwADACNjf+QbLcHhj5DAKCjGAAYABq9E3CpZNGeoc8SAOggBgAGgKaHymRzpEKfKQDQMQwADABt2AlQHw99pgBAxzAAMAC0Zgg4NfTZAgAdwgDAANCWAUBvFa//KPQZAwAdwQDAANCmUD+WjdHeoc8aAOgABgAGgNbFF0OfNUA9hjN7Ren6x0TDqcOiVVOHD4ajYwbp1B8Phm4pwRrMNweS1L1kZxtg3yM27vNln94iUdyAhtq+8Po1ZR8LoH5mtEeU2j9MjP2LOHXvjFP7pcS4ryep+1Fi3JbQRY9gDcgBBoAGDgA3Sb7oIbQstMfS1YPIuD9IUvvG2LjP7mjyFFjWgBxoQQ6wA9C0UOeELunAfVuxbp/E2L+MU3d+krqbQhcxgjUgBxgAOrILsI2nAtA8p9n9ktStTIybSVK3lYJL0yUH2p8D7AA0cgj4tmyKxkKXfPTd5GRS3KAXp251YuydoYsVwRqQAwwAwRt0PfH60OUffTWxYUkytCZJ7ZUUXJouOdDdHGAHoKm7AOq/ZWO0MHQrQJ+sWLc4MfaUJHXXhC5MBGtADjAA9Dqm1fLQLQF9cPIanRg3kaT2OooujZcc6E8OsAPQ5FA/lQ3RktDtAV1m3DMT4y4LXYgI1oAcYAAI33QbFl6loVsEumj52r3j1J6VGLuNwkvzJQf6mQPsADR+F+BqnghAqQape1Fi3A2hiw/BGpADDADhm2zDIxs7kRaI+ZvMFhSv5uVXP42XxksOsAPQkvB6E+0P82NGBySp20jhp/CTA+QAlwDatgswfgQtELvGjI5IUvszCj+FnxwgB7gHoI2hPkn7w5wNJkbHJqm7jcJP4ScHyAFuAmxt3CoXRrvTArHTEmNfySt8Kfo0fnKApwA6Ea+l/WGnJOnUm7jZj8JP8ycHeAywK6FmaH+4X8nQncgX+yj8NH9ygPcAdO1TwepgWiDu1WBi6ujEuC0Uf4o/OUAOMAB0bQhQp9H+cM+Go6ckqb2Fwk/hJwfIAd4E2Mm4mPaH33Va/hC+4kfRp/GTA7wKOHiTrjoeTgvEr0xOJnHqRhR/ij85QA4wAHQ91F/R/vC/YuPeRuGn8JMD5AAfA+pBeJXT/rDdxNSzEuPupvhT/MkBcoABoBdxl4yiPWiBfTexYUmSuqsp/BR+coAc4HPAfQp1fOj2g8Di1J5J4afwkwPkwK7mQGzc58uuSyJRHL5Bdjy8+lDZxw1tsip7HK/5pfDT/MmB+eQAA0BbBwB9eegWhGAkTlK7geJP8ScHyAEGgJ5Gph9GE+6hxNi/oPBT+MkBcmC+ORAbd27Z9YlLAHXtAoy/quxjh6ZbtmksMe4Kij/FnxwgB+Y9AKTuY2WXKAaAunYB1FllHzs0XJK6V1P4KfzkADlQRg4UNxKXXaMYAOraAdDfLvvYocmWrh4kqbuc4k/xJwfIgVJyILVp2WWKAaC2AWCbbIz2Lvv4oaES415O4afwkwPkQGk5MOH+rOw6xQBQ442A0+rYso8fGknixNjNFH+KPzlADpSVA5EZHVp6pVoT6doaYN/D69PLPn5oIjM6gsJP4ScHyIHycsDeGZ28RpddquTCaPfgjbEv4fkuQC/Eqf0nij/FnxwgB0rMgW9WUavkgsX7BG+MfQmvb5MsWlDFcURTrFi3ODH2Zoo/xZ8cIAfKyoHY2HOqKFeSqUcHb4x9imzsiVUcRzQEj/5R9Gn85EDpOZDaN1ZRr8SPHxm8KfYpMv26Ko4jGiIxboYGQAMgB8iBEq//b4tWuAOrqFfi1YuCN8VehTq7iuOIJliZ7VucrBR/ij85QA6U+Ot/U1UlS7xaEb4p9ii8vrSqY4nA2P6n6NP4yYHyt//dW6uqWZKrjwRviv2Ku2VdtLiq44mA4tStpgHQAMgBcqDMHIhW2idUVbMkV6MGNMV+xfT44VUdT4QymS1IjP05xZ/iTw6QAyVe/7+4yrIlubomeEPsW3h9UpXHFCFM2CMp/BR+coAcKDUHhqOXVlWyxC7cL3gz7GUovgzYNXHq3kHxp/iTA+RAiTnww2JnsaqaJV4dF74Z9jC8urCqY4pAePyPwk/zJwdKvvlvZZU1S7x+b/Bm2M+4VSRKqjy2qNOyTWNJ6m6jAdAAyAFyoKQcuDYyoz2qLFvFN+ob0Az7GV4dXOWxRZ2Go6dQ+Cn85AA5UN6vf/vaKksW1/8DDwDT6oQqjy9qlKRTb6L4U/zJAXKgpBz4RjQ5WekWsWT61cF/Bfc5vJqs8viiRrFxn6X4U/zJAXJg/jlgt0Vp9rSqa5bk+jPBm2C/4zNVH2PUJDHuCoo/xZ8cIAfmmwOxcf9Ydb2SzZGSXF3fgCbY57ik6uOMOqyyD6bwU/jJAXKghLv+vx1Nnr+o6pLFB4Aa8yRAXPWxRsUGqXsRxZ/iTw6QA/O86e/2yLg/qKNgS67Pb0ADJGbGD6jjeKNCcWrPoPhT/MkBcmBeOTCcWlZHoZYLFu8jXt9JA27AAOL1c+o45qhQYtw0xZ/iTw6QA/O47v/xuoo0n/9t1ABwUl3HHVXgBUA0PhofOTC/m/6+UuXrfn+b5PpbwRsfITvW4F11HXdUgRcAUfwZAMiBXb/uf2G0Yl1t34Yvtpxpvg0aQLz+XF3HHhVIjDuZBkADIAfIgbnngN0cLV+7d52FWbzKgzc9Qn61BuprdR5/lCw27l8o/hR/coAcmGPzvzhaNf2gOguyZPoomm/DBhCvflJnDqBkSWovpfhT/MkBcmAO1/ynosk1u9ddjMUrF7zhEfJblwC2SRaN150LKMPkapWk7g6KP8WfHCAHdrL5nxdNZrUXfJkeP5zm29ABZEY/ou58QBlWZk+k8FP4yQFyYCdy4O4ktZNVf+Dn3vDrv8mXAcafHiInME9J6l5N8af4kwPkwP3c6X/dIJ3641AFV6bHXha8yRFy72ugjg+VG5iH2Lj3Uvwp/uQAOXAfzT+PJtY/NFShlQ3REsnV1TTgBg8hXtfyBkiULE7diOJP8ScHyIHfbfzutmRoTbR09SBk4RWvzwze4Ij7WQP11pA5gl2UpO5qij/FnxwgB37jRr/U/r9ohTswdGEVP/Z4yfVdNOCGDyFefTB0rmCuJjYsSYzdRvGn+JMD5MCOZ/uvGgzd0iYUU1kdDcSrDcGbG7EzA8C5ofMFc5XaP6TwU/jJAXKguMlvdrs/wON990a8+muab2sGkC+HzhfMUWLcqyj+FH9yoOeN39gV0fKNC5tUQMWPH8nWf5tCTYXOGcxRbOzpwQsQwRqQAyEa/4XFD4Am/eL/JZmJ9pJcXRW+qRE7vQZebwqdN5ijOHWrKb40YHKgJzmQupvi1H0smrBPamqxFIli8fo8mm/Lhg+vLw+dO5ijJLWbghclgjUgB6ps+tfHxp4zMPa46OQ1uulFUqbV8uDNjNiFAUDxQaC2KYoDxZcGTA50KAdS+7PiEb7EuLdEq6YOD/Xa3l0h0+pYyfXdNOA2DiHqp6HzB3MxuWb34MWKYA3IgV39ZX9TkrpL4tR+ITbuXYlxr4lW2cdGkcRtLISSLXiy5PrW8I2M2MU1uDF0DmEujPsDii8NuOQcuDZJ7YbYuHN3vGJ6mAynliWpe13xbDmxq2swOmb217wZHRoNR4+ITs0e2KViJ7l+uOTqGppvq4ePW0PnEeZgMGFfwADAALDrW83uR7Gxn06MWx6Z0RGRGe3BCYi5ktGSB4jX/9WABkbMbw22kP0tkkxMncQAwAAwhxzYEhv778nQvj6aWH9w6PxFZ5r/JppvB4YPr7eGzifMQWzs3zIAMADcTw7cHafuq4lxLy/uGeEEQ1kkW7Sv5PpbwRsXUdYAsI2zo0ViY89mAGAAuOccsD9OjD0tOs3uFzpP0T0yM36A5Pq7NN9ODSBbQucV5iBO3fkMAAwAv3Vd/5Jk6E6Mlm0a42RCFSTTDxOvftCAhkWUuQZe38wZ0yKJsRczADAA7Hh2/Mribv02PTOO9pHphU8tXhhD8+3g8OH1DaHzC3OQGPdDBoC+DwD2x8UjetFktoCTB1WS6fFXite/CN6oiIrWQP0PZ1CLzL5IJHgDIgKtwa2JcRNN+wIcukc2R0py9REab8eHD69+GDrXsLOWrh4kxm6jAfdyAJmJhqNHcbKgajK924OKz8QGb05EDQOA/jZnVFsMZ/ZqQCMi6lyD1N2WDK3hOj/qINPqBcW2MM23LwOI+hpnVluY7GE04P4MIHFq10Ur3IGh0w7dJzPRXpKrs8I3JKLmAeCroXMPO2tl9sTQTYmoYw3stjh17+RXP+ogXi0Vr66j+fZw+PD6c5xlbZG6Z9CAOz+E3Dj7DXigYuLVweL1ecGbEBFwDdTZnGhtYUZHNaBBEVWtQeou3/5pWKA6smHhQ8WrfxSv76T59nwA8foMzrWWGKT2OTTgbg4gsbFfjiY2LAmdY+gu2RAtEa9M8fa34I2HaMYaeLUidF5iJw2G7k9DNyqiguaf2s/wUh9URfJFDxGv3y5e/yx4wyEatgZjr+DMa4nBhH0BDbhbQ0jxcSdu9kPZRKJY8vFnilfnitd3hG80RCPXYFofzdnXEoPUnhC6YRFl/vJ374siiUPnFbpDMvVoydVbJVffC95ciOavwczYIaFzFjtpYKZeTAPuxhASG3s6iY/5kjWRlkwfJV6fLrm+LHhDIdq1BqMlD+AsbAkuAXSl+bt/DJ1LaB+RKJFcP1y8etH2hq9G4vVtwZsI0dY1uL24VBQ6r7GTBhOjY0M3L2Lezf8rxTcdupL0kkULZGb8gNmt55mxwyTXz5ZcPX/Hy2WIua5BPvYK8XqZ5PqNkuu/2fG43pck19+SXG9pQNMgurIGXv9X6PqBORgMR8+jAbd4CEndRdGKdYvbmPSyLlos0+PPklytFK8+KrlaL7n6vuT6ruCFjGANyIFdyAHFa4DbhPcAtLr5/yBaZR8ctYRk0Z6Sj71UvPqAeL2JRk+Tpcl2LQfUR0LXGcyFcc8M3siIXVgD+/NoYv3BTU92yXZ7oPjxV4nXX+HRsdDFmWANKh8AJkLXHMzFhH0SDbiFQ8jQndjURJfNkZLpsZdJrjLxeitFl8ZLDvQkB7xaGrr+YC6G2UHBmxnRiTv+xY0fKLl+h+TqmuCFiGANyIEAA8DYoaHrEOZilX0wDbhNQ4jdHE2ev6h5X4BT50qu76bo0njJgZ7mgNdbZVPUqNqE+7N848LwTY3YqTVI7e3RSvuEpiS15OP7S67O4ma+BhRfgjUIngPqytA1CbsgMfZOmnAbhhD7huZ8AU6fyU19oQsuwRo0KgfWhK5N2AWJcdeGb27Eff/6dxc14QM/Mq2OFa9+2IBiQ7AG5ECzcuA9oesTdkFi3H/SgBs8gKRuazScemrI5JZs0b6Sq3MaUGQI1oAcaGYO/GXIGoVdFBtrgzc54l7XIDb2wyGTe/trePUNDSgwBGtADjQ1B/z400PWKeyi2NhP04AbOoSk7vpoOArydS1ZHQ0k12/jWf4GFFeCNWj6EwBZtFuIOoV5ilN7ZvBGR9zbGrwm4JZ/FrywEKwBOdD8HPD68hB1CiVIjBvSgBs4hKT2e9FktqDuJBenH7njozzhCwvBGpADzc8Brz9Xd51CSRJjXxm82RGN+PUv2YIni1fXBS8oBGtADrQoB9SqumsVyjJhj6QBN24I+WE0uVrVmeSS62eL1zeFLyYEa0AOtCoHvPqTOmsVymRGBzSg4RG/vgZD+/o6k7w4gXmxTwMKKcEatDEHskX71lmvUKalqwe8DbBBA0hqfxJNZuN1Jbn4BU+RXN8SvIgQrAE50L4c8OqKumoVKpIYd0Xwxkf8cgB4c12JLpk+SLy6NngRIVgDcqCtOfDpuuoVKhIbN0UDbshb/968dv86El3yRQ8pPuDRgAJCsAbkQFtzwKs31VGvUKE4dR8L3vwIiVO7ro5EF4kS8coGLx4Ea0AOtDsHsgVPrqNmoUJJ6lbSgBswhKT2ZXUkung1GbxwEKwBOdD2HLhdNke1Pq2ECgwmRscGb37EjdHyjQurTnDJx58pub67AcWDYA3IgVbngJqpul6hDsPsIBpw2CEkTt1Hqz7MMhPtJbm6OnzhIFgDcqD1OeD1u6uuWajtUUC3hSEg3AAwGLrnVn2YxasPBi8aBGtADnQjB7x6UdU1CzVJjLuMASDYtf9bopPX6CqPr0yrx0qu7wpeNAjWgBzoRg7YhftVWbNQozh1qxkAAm3/G3de1cdXvFoXvGAQrAE50JEcUFdVXbNQo+IFNAwAoS4B2FOqPLbi1QvDFwyCNSAHOpMDni8AdgpPAoS7/h+Z0aFVHlvJ9UXBCwbBGpAD3ckBryr90YK6vXnt/uwAhLj+724qbsKs6rDK9PizghcLgjUgB7qVAzNjh1VVsxBIkrrrGQJq3/73VR5TyfX5wYsFwRqQA93JgeL7IRIlVdYtBBCnLmMAqHcAiFN7ZlXHU7w6WLzeGrxgEKwBOdCdHPDqE1XVLAQUG/deBoDaLwG8uqrjKV7/ffBiQbAG5EC3csCPvaSqmoWAEuNezgBQ7wAQTdgjqzqe4vV/BS8WBGtADnQpB+6SLNqzqpqFkHglcIABYP1DK9v+D18sCNaAHOhSDniVV1Gv0AgSJ8bdwC5Abdv/dxRrXsmR9MoELxYEa0AOdCsHMn1yFfUKDVF8k54BoLYB4OqqjqN4tSF4sSBYA3KgSzmwRUZLHlBVzUIDxKl9OwNAbQPAJVUcQ8miBbPf6g5fMAjWgBzoTg78axX1Cg0ymHD/hwGgngEgNm6qimMoM2OHNKBYEKwBOdClHMj086qoV2iSFev2YQCoaQBI3VerOITix14evFgQrAE50KEcUFfL6qiyN5aiQRLjvssQUMcAYL9UxfGTXL8rfMEgWANyoEM58LYqahUaKDb2nxkAarkE8Pkqjp94/e8NKBgEa0AOdCEHvL5ZNkZ7V1Gr0EBJal/LANDiASDXlwQvGgRrQA50Iwe8/vsq6hSaalX2aAaAFg8AXv138KJBsAbkQBdy4Fa5YPE+VdQpNJbESWqvYwho6QCQ61saUDgI1oAcaM3jq5QAAA6GSURBVH8OvKeKGoWGK25QYwBo6QDg9Z0NKBwEa0AOtDkHvL5JskX7VlGj0HCJccsZANo3AIhEcfDCQbAG5ED7c8CrU8quT2iLVdnjGAAYAIIXIYI1IAdC5MB/Fm8UDd2GEPY+gJ8wBLADQAGmCZMDPcoBr7dJPv5Mmm/Pxan7FAMAA0DwgkSwBuRAjQOA+njo3oMGSNLRnzMAMABQfGnA5EBfckB9Ty6Mdg/de9AEK7N9k9RtZQjgJsDwhYlgDciBinNgi+RjTwrddtAgSWo3MAAwANB8aD7kQMdzwOuTQvcbNExi7AoGAAaA4MWJYA3IgSqbfyXvJEHbmexhibHbGAJ4DwAFmCZMDnQwB7z+uqyLFoduNWioJHWXMAAwAAQvVARrQA6UnQPf5V3/uE9J6lYxADAAUHxpwORAl3JAXS1u/EDaH+7baXa/xLi7GQJ4FXD4okWwBuRACc3/GpkZO4TWh50Sp3YdAwADAM2H5kMOtD0H1JUyrR5F68NOS4buRAYABoDwxYtgDciBXc4BrzeLXbgfrQ9zM5mNJ8b+nCGArwHSgGhA5EALc8ArL1m0J60PuyQ29v0MAAwAwQsZwRqQA3P51b9Ncv1+2RwpWh923Yp1D+dmQAYAii8NmBxoSQ54fZN4tZS2h1LExp3HLkA5Q0BsXOlv3xKJ4uBFh2ANyIHwOeDVhZLrh5ddY9Bnxj2TAYABIHhxI1gDcuDecuBG8eoUWR0NQrcLdFBi7MUMAewAUIBpwuRAw3LA669IPr5/6B6BDhsYexwDAANA8GJHsAbkwK+2+zN9TOjegJ5IUreRIYB7ACjANGFyIOgv/kuLm/yKe39C9wT0yGA4OoYBgAGA4s8AQA7U3vS3Sa5GMq2ODd0H0GOxcVMMATwFQANgCCAHasmBn0uuzuId/miG4dRhvBeAAYDizwBADlSWAzdKrj8tuXqxrIl06JIP/IY4dR9iF4D3ANAAGALIgbK2+NUV4tVHJdfP5e19aLbJNbsnqf0JQwAvAqIBMASQA3O+nn+H5PpiyfX7Zm/m27DwoaFLOjAniXGvYgBgAKD4MwCQA/d27V5/R7zKJVeflFwNJVfHi1cHSxYtoN2g5SSOU/dVhgBeBdyuBqC+Nvuri2AN5p8DLyyew5dpfbTMjB02G/n4/pJF46GrM1C9Fev2SYz9H4YAvgXQou3X0r/FAAC9NBiOnpcYu40hgI8BBW/uDAAAUK84tR9gAGAACN7cGQAAoGbLNo3xgiAGgODNnQEAAAJYvnbvxLjvshNw34NAbFzp16CLd4IHb6xtCe4BAIAKrHSPTIz9KUMAA0DwRs8AAAA1m5h6VpK62xgC2AEI3uzZAQCAmk3YIxNjb2YI4BJA8IbPJQAAqJkZHcEQwAAQvOEzAABAAKl7RmLcDewEcBNgY4KbAAGgxhsDU/sthgCeAgje/BkAAKBmk9lucWq/wBDAY4AMAADQOxInxg0T47b0eRDgPQDsAABAPw2zgxJjfehGzADQgO14LgEAQM9MTiaJsackqb0ldENmB6ABTZl7AACgZ07NHhin7p19enEQlwAYAAAAv7Qy2zdO3fsSY38RukEzADTgVzpPAQBAz5jRHolxr4pTN0qM3Ra6WbMD0MHgPQAA0HCr7GPj1L0jMe7riXF3h27cXAJoQPNmAACAnjkl23Ngpo6PjX1/YuwFSequD93IdzW4B4ABAAAwH8vX7h2l2dOKSwaJcROxcW+LjX13nNqz4tR+Jk7d6iZGko5OLfvAi0Rx8F/WrQn1NfFqKRFqDcafXnb+A0BvMQCEHiqInV4D7sEAgPIwANCAWzOEMAAAQHkYABrQ2AgGAACoGwMADbg1Awg7AABQHgaABjQ2ggEAAOrGAEADbs0Awg4AAJSHAaABjY1gAACAujEA0IBbM4CwAwAA5WEAaEBjIxgAAKBuDAA04NYMIOwAAEB5GAAa0NgIBgAAqBsDAA24NQMIOwAAUB4GgAY0NoIBAADqxgBAA27NAMIOAACUhwGgAY2NYAAAgLoxANCAWzOAsAMAAOVhAGhAYyMYAACgbgwANODWDCDsAABAeRgAGtDYCAYAAKgbAwANuDUDCDsAAFAeBoAGNDaCAQAA6sYA0PMG7PVW8cqLV2+WaX205OP7y7po8WxuZNGeskH9vkyrF4jX75ZcX8YOAAB0BANAb+Mu8eqj4sYPnFO+5Av+ULz+wuzgUP+w8vnqzgQA6BkGgF7Gl2VaPWpeeZMtfJp4/U0GAABoKQaA4M24zl/QWyVXw+KYl5I7WTQuuTq7xn8/OwAAUBYGgN7E7eLVcVWcOZLrtzEAAEDLMAAEb8x1/HLeJvnYKyrNozp2AtgBAIDyMAA0oEFX3zjfXvU5I5uisdmnCRgAAKAdGAA6HxeJREktuZTph0mut1Q4yHAPAACUhQGg4+EXPKXOs0W8+gADAAC0AANAl5u/Wlt7Pk3v9iDJ9S3V/D3sAABAaRgAOj0AvDDEqSK5+iQDAAA0HANAZ+NW2RypIDnl1XEMAADQcAwAXQ21PlhOjaI9JNd3l7+jwSUAACgNA0BHw+szQp4m4tUVDAAA0GAMAJ0dAE4KmldeOQYAAGgwBoCOxvT4K4PmldfnMQAAQIMxAHQ0svE/C5pXXn+JAQAAGowBoLPxhqB5lauMAQAAGowBoLPxnqB55dWPGAAAoMEYALoaaipYTo2WPGD7FwhL/pt4DBAAysMA0Nm4XTZFi0KcKzKtTqjkb2IAAIByidd3NqBhEWWvwfTYy0KcK5Lr1RUNAJ8L8fcAQGeJ1z+jAXdwAPEqrz2X8kUPmd19qObvObfuvwcAOk1y9ePgzYqoZg0yfVStueT1eyscaD5R598CAJ0nuf4ODbizQ8h/yqZorJY8mlaPrfZykjq7jr8DAHpDcn1xAxoVUdUaePXBynMoi3abHTYqPY7qw1X/HQDQK5W8tpVo2hq8vrL8kSiu7Ma/34x3VfU3AEAvidfvbkCDIqpcg2JrPhs7sfTcyaIF4tVH6zl+alXZ/34A6LXi1yENuDcDyPtFoqSUvJmJ9pJcjbqwiwEAvSSZPqYBjYmoaw28sjI99oR55YzXz5Fcfb/W41bBDgYA9JpkC3+PBtyzAcTrrcVjdZLpg+Z0rT/TR0muvhrk35zp51V7JgBAD4lXPwzelIgQg8A2ydXXxKtJyfVzxY0fOHtHf9Hsiy3+mbFDxKulxZMEkqsrgx6jbOxxoc8TAOgcyfWnacAMIY3OgSzaLfR5AgCdI16fFLzAE6zBve5UqOtCnyMA0Enixx5PA6YBNzgHLgp9jgBAJ21/mUvga7wEa3DvOwB8CAgAqlK8aY0mTBNuZg6ov+LMB4CKyMzYYeELPcEa3EMOZONHcOIDQIUk19+lATGENO6dBTwBAADVEq9OC17wCdbgNweASznvAaBi29/vrm+lCdOEG5QDf8eJDwA1kFx9pAFFn2ANtufA9MKncuIDQA3Eq4Nnr7vSgBhCQueAV9eW9fVCAMBOEK8/G7z4E6xBrj7CCQsAdX8h0OvbaMI04bA7AGOP58QHgJqJ16czADAAhMsBlXHSA0AAsiFaIrm6hiGAISDQ9f+lnPgAEIh49UIGAAaA+pu/3ixZtIATHwACklydwxDAEFDzAPAcTnoACExG0R6Sq6sYAhgCasqBfwud8wCAHSTTR0mu72IIYAio+Jf/TTKjH8GJBwANIrl+IwMAA0C1OTD2itB5DgC4B+LVhxgCGAKq+fWvPsRJBwANVdyZLblazxDAEFBuDqiNsibSofMbAHAfZF20uHhJC0MAQ0BJOXBJ8RVKTjoAaM8QMMUQwBAwzxz4D9kY7R06nwEAcyBZtJt4lTMEMATs4rb/DM0fAFpKNkWLxOvPMwQwBMzxhr8PyqZoLHT+AgDmQSSKxSsjXm9lEGAQuJ8cuF28fg0nHAB0iORjLxWvf8EQwBBwL7/6L5Bs7HGh8xQAUAHx6jHi9SaGAIaAX8uBn4tXp4hECScdAHSYbI6UeH265PpuBoFeDwJ3iVefELv4waFzEgBQI5keP3z2s67hGxERovFn+iBOOADo9ZsD9RskV9fTiDs/iGyRXP0TH/MBAPyv4nlv8eoD4vUdDWhURJlr4PW3ZVotl2y3B5LyAIB7JNnC3xOvz5Rc30IjbvEg4vXNs7/28/FnkOoAgJ0moyUPEK8mJVfXBG9mxE6uQXGs1Nni1Z9KFo2T7gCAXVa8DU68Ok5y/UUuDzRsGCle7OT1NyXX7yp+6fMYHwCgEsU15NkbBr1aO/vGuNANsH9RPLZ5iXj9XsnV8bynHwAQ5hsDuXq+5OrDkuvv8JrhKhq+ulpyfb7k+m0yrY6VLNqTVAcANIqMoj0k18/e8c2BL4hX1zbgF3Nb4m7J1fck1/8muXrL9mv4i/YNfUwBANglxfPm4tVSyfXfzQ4F23cK7mxAww35oZ1LxevPzd5g6cdeItNjT5A1kSbFAADdv6lwZuwQmVYniFd/PdsMi+vaxfvowzfo+YfXN+y4Tn/e7LX64h37xaUSpx/JTXoAANwDmYn2knzsSZKrF4tXKyTX75Nc/6t4tUG8umL7m+yCNfcbJVffF68ulFyvEa8+Jbn+B8n0ybNPSfixx8uGaAkHFgCAqt5PMK0eJdnCp4lXfyL52Csk12+c3U3I9TvF6zMkV2ftiH+WXK/eHuqcX/3nxWNzs//dv91+z8LsfQsnidfLxOvXzN5hn40fIdPqscWHcorXJXMwAQAAAAAAAAAAAAAAAAAAAAAAAAAAAAAAAAAAAAAAAAAAAAAAAAAAAAAAAAAAAAAAAAAAAAAAAAAAAAAAAAAAAAAAAAAAAAAAAAAAAAAAAAAAAAAAAAAAAAAAAAAAAAAAAAAAAAAAAAAAAAAAAAAAAAAAAAAAAAAAAAAAAAAAAAAAAAAAAAAAAAAAAAAAAAAAAAAAAAAAAAAAAAAAAABA1BX/H6P6VMuk3fudAAAAAElFTkSuQmCC;" parent="106" vertex="1">
                    <mxGeometry x="731" y="98.5" width="40" height="40" as="geometry"/>
                </mxCell>
                <mxCell id="110" value="EC2&lt;div&gt;(Backend)&lt;/div&gt;" style="text;html=1;align=center;verticalAlign=middle;whiteSpace=wrap;rounded=0;" parent="106" vertex="1">
                    <mxGeometry x="690" y="204" width="60" height="30" as="geometry"/>
                </mxCell>
                <mxCell id="111" value="" style="sketch=0;points=[[0,0,0],[0.25,0,0],[0.5,0,0],[0.75,0,0],[1,0,0],[0,1,0],[0.25,1,0],[0.5,1,0],[0.75,1,0],[1,1,0],[0,0.25,0],[0,0.5,0],[0,0.75,0],[1,0.25,0],[1,0.5,0],[1,0.75,0]];outlineConnect=0;fontColor=#232F3E;fillColor=#8C4FFF;strokeColor=#ffffff;dashed=0;verticalLabelPosition=bottom;verticalAlign=top;align=center;html=1;fontSize=12;fontStyle=0;aspect=fixed;shape=mxgraph.aws4.resourceIcon;resIcon=mxgraph.aws4.elastic_load_balancing;" parent="106" vertex="1">
                    <mxGeometry x="560" y="120" width="78" height="78" as="geometry"/>
                </mxCell>
                <mxCell id="112" style="edgeStyle=none;html=1;entryX=0;entryY=0.5;entryDx=0;entryDy=0;entryPerimeter=0;" parent="106" source="111" target="108" edge="1">
                    <mxGeometry relative="1" as="geometry"/>
                </mxCell>
                <mxCell id="147" value="" style="group" parent="106" vertex="1" connectable="0">
                    <mxGeometry x="434" y="362" width="91" height="115" as="geometry"/>
                </mxCell>
                <mxCell id="131" value="" style="sketch=0;points=[[0,0,0],[0.25,0,0],[0.5,0,0],[0.75,0,0],[1,0,0],[0,1,0],[0.25,1,0],[0.5,1,0],[0.75,1,0],[1,1,0],[0,0.25,0],[0,0.5,0],[0,0.75,0],[1,0.25,0],[1,0.5,0],[1,0.75,0]];outlineConnect=0;fontColor=#232F3E;fillColor=#8C4FFF;strokeColor=#ffffff;dashed=0;verticalLabelPosition=bottom;verticalAlign=top;align=center;html=1;fontSize=12;fontStyle=0;aspect=fixed;shape=mxgraph.aws4.resourceIcon;resIcon=mxgraph.aws4.api_gateway;" parent="147" vertex="1">
                    <mxGeometry x="6.5" width="78" height="78" as="geometry"/>
                </mxCell>
                <mxCell id="145" value="API Gateway" style="text;html=1;align=center;verticalAlign=middle;whiteSpace=wrap;rounded=0;" parent="147" vertex="1">
                    <mxGeometry y="85" width="91" height="30" as="geometry"/>
                </mxCell>
                <mxCell id="148" value="" style="group" parent="106" vertex="1" connectable="0">
                    <mxGeometry x="240" y="351" width="90.00000000000009" height="123" as="geometry"/>
                </mxCell>
                <mxCell id="114" value="" style="sketch=0;points=[[0,0,0],[0.25,0,0],[0.5,0,0],[0.75,0,0],[1,0,0],[0,1,0],[0.25,1,0],[0.5,1,0],[0.75,1,0],[1,1,0],[0,0.25,0],[0,0.5,0],[0,0.75,0],[1,0.25,0],[1,0.5,0],[1,0.75,0]];outlineConnect=0;fontColor=#232F3E;fillColor=#7AA116;strokeColor=#ffffff;dashed=0;verticalLabelPosition=bottom;verticalAlign=top;align=center;html=1;fontSize=12;fontStyle=0;aspect=fixed;shape=mxgraph.aws4.resourceIcon;resIcon=mxgraph.aws4.s3;" parent="148" vertex="1">
                    <mxGeometry y="10" width="78" height="78" as="geometry"/>
                </mxCell>
                <mxCell id="115" value="" style="shape=image;verticalLabelPosition=bottom;labelBackgroundColor=default;verticalAlign=top;aspect=fixed;imageAspect=0;image=data:image/png,iVBORw0KGgoAAAANSUhEUgAAAgAAAAG8CAYAAAComB1pAAAABGdBTUEAALGPC/xhBQAAACBjSFJNAAB6JgAAgIQAAPoAAACA6AAAdTAAAOpgAAA6mAAAF3CculE8AAAABmJLR0QA/wD/AP+gvaeTAAAAB3RJTUUH6AcYFhwGBvG3hQAAQK5JREFUeNrt3XmYHWWh7/vfW6vWkE4n3ekhIFtEFAgyyRBIOnO7SXoIOZ57997Zzz73nOece++zH+7ZStIJIUNPqUgAUQS2CCiKM6AGBUV3SEh3LwMYUKNuFFGZEghTyEA66XlVvfePsD0HZcjQXetda30//4lJp9evqt76vbXqrTL1D169UVKj4JTc04c08G+vEETcPCP/vEl/99h1N/+AMIpH3eor/mnkid67ZS1hxGzcfzpJ/qnjCcIxRrrfCxNaLmmEONzin14u/wNlBBG3yMq+2vdlgigu4SuDt3Pyj1/iA2Wc/N00nPO00ts6v+MpI91GHu5Jz6mVPEMQcZ8sXh2qmrFyyXqSKA7Tr/zE56PdQxUkETPPKDOnlhwcZK29ceuCjqe9w1XAXydpD7E4dvxUp5Q6eyJB5EFuZ9/KaUFA+AWuLlhWFb0w+D9JIn6p8yvkVacIwj2vjbPRdZLkSdIjl63Zb4w6ycXBg2hGjUzGI4iYRb0jSW//7rtJosBnOnuHvx8dGvFJIl4m4yl1cTVBuDn7X72xOej9cwGQpOoDU+6Q9ATxcCDhsJHn+5ovbm05nyQK04yOf7k43HloHkkwccGf/Wre49E3/+N//HkLbVi8OPQUtZCPgwcTl9Ly1ACsSewf+i5BFKbotWiDHeHGv7jx1aW7k39PtiUIguivCoAkdTWu7ZHE8ifnjihupsmX3I6+M2auWfLfSaKwzF6z9J9zuwZOIYn4cfOyq6d/3d3V2PnwW04tf/lnQqMVkgZJyy0sp8njhYCXBm5REHA9s0DMCwJ/6MW+m1j2Fz+WLzvKaCDhh61/Nbf8y/+wtaHjeRndRGJuNmuToFnHLXp9aELdob3/ShKFYfDQnjuivcO05bjPMQmj9IwagnBz9n/dlvnBC+9ZACTJpsJrJb1Mam7xKpNKnldJEHmQ29H3P2cEKyaThNtmX9P6vvD5fr6yyYPkRZPkVSYJwj0vlo+En3vbc8rb/cdsfXDIGtNKbu5JTa+SKUsQRNwFui+XiPb1f48k3Dbyyv77bH+Or2vinv2XJZS6aBJBuDl6rXhgUdB/xAVAkrIL2r4p6XHCc+xAS3lKT+cyW16uAjzXN7eubckMknDTzM7l9eGOvmkkEb/07BqZFL3LvXO/Hu1p6NjwTv/3O28xY6yNTIsk7qRxjH/uRHknZAgibqGV3T18D0E4WtBe6rvbhuQQt8SJGSWnTCAI90Q2YVpkjD36AiAp29z+mDG6ixwduwogHV4WaLghMPaTzK7+D8xoXXIFSbhlRusVV4YvD5xIEnEPRkbpuYxFjrozu6D9l+/2B977ms2wWS3pEFk61rpPyih5WjlB5KME7Oy/fl4Q8HhZR/xDEKTCHf28vCkPkmeWK3EiVyMddNCG4Xs+3v89C0D3ovaXjDXXk6d70rNrZHyad9yifcPjBg+8/hWScMOuA6/fFe4f4SwU9+Q/5Sk1gweUuchK67ILg1ePuwBIUpTJ3SDpeWJ17ACc4Ct1IXfe5kO4s/+/zWlrO5kk8uuS9k+eOrKj7+9IIn6pqZPklbMiycEzwzPjooovHMmfPKICkK0PBq3RSoJ18CC8ZJK8CVyNjr1hD4TecO8b95JEfnn7oh9qMOIyWNynmIqkUhcw+XB067RsbF4yNGoFQJKyDR33SsoSrmMSHk/fypPcc4cumdO+bAFJ5MestisW5Xb2nUsS8cvMqpH4+tFFW3oa235yxAX6KOc9n5SUI2O3+FPKlThpHEHELbIaeqXvmwSRHyOvDH1VEauUYx9v3j9OPjcgOzknscZbdjR/4agKQE9j55MyupOcHWOM0nNrRB+PX/jy4AkzVi1tJ4l41a365HXhK4Nc+srHWMObSZ1kZb+QbWj73ZgVAElK2bBV0j7idktickaJs3gHd15q986+9ouCgFegxWRe8C/luR39V5JE/FLnTpRXmyYI9+xL+P5RL4U96gKwqTHYJyPW3DooM7Oax3HmQXRgOJ18Y8+3SCIeA/vNvbY3x1tn4p78pxNK1VUThIvbRrat69LWvWNeACTJpsJbJD1J7I7tBGW+klO5MzcfwucP/R+zgk+cQRJja0aw5JxwRx83XuZBenqVTIZlfw56MkpHx/RckmMqANn6IOeZaBm5uyd10SQZXskZOzscmdzu6PskMcZF65XhH2iYZX9x86pSSp5bQRAubhsTLcvWB8d0c/4xXy/ualj7kIz+jfgduwrgmcNLdBC73I7+c2asafl7khgbda1L/0v4Qv/pJJGH2f/sGilB73Jw6vH9roa1Dx1zeTiuf9qGSyUNsRHc4n+4XP4p3JMW/7FoFb7cfwdBjIEg8KKXBm4jiPglTh0v/4PjCcI9Q1bR6uO6enA8fznbGDwj2VvZDg429jk1kkdjj1u4e3DSjJVLP00So2vGob1fCHcPcg06ZsYzyszmiqKT20a64fA5OE8FQJIyUbRO0qtsDrd4VWklz2G8zIeRHQeXzwtaKklidNQFy6pyO/r/mSTil7ygUt6kFEG457V0FH7muM8Tx/sDNjYHvdYqYHs4eBVgRpXMOO7ajZs9mEsOvZH7LkmMjmjf8H1R3wgvvIh7ElGWUOriKoJwc5RZubE56M17AZCkeY+HX5a0nY3iFpNOKHUJB3A+5J47NL+uY/kFJHF8pncsnRY+f2gOScQvVVctk+a5Ig7aPvex6NujUvJG44cEQRDJs0sl8WBu1w7i8yrkVXMJL/Z+PhKZ6PWB75HEcc7+XxncoBzDSuyz/9q0kmfzZFEXhxZrTUsQBJEzBUCSehZ0PiojXo/q3JFslJk7mRzyIHyh/7QZa5b83yRxbGa2Lfn/opcHTyaJ+GXm1kqGm4gd9K1sU/sjo3Z6GNUBT+ZKSf1sI7ckTh4n/0Ms48lDV1e4q//zCgKuox6leUHgj+zsv0GW2X/c/DMmKPE3vF3UQf2hMaP64rFRHZi2NrS/aI29ke3knvScWhke5BH/VYA9w+V1B/ewVPYoDR98/avR3mFaa+yzBU+ZmSz7c3I+YXTt1ob2F50tAJI0YTi6TtILbC63eBVJJc+vJIg8yO3o++cZwQq+hzlCs69pfd/Ijv7/iyTil5o6SWYiCy4c9MKE4fCmUT8vjPYPfGBR0G+tbWN7OXgVYFqVzHgO7tibe3+YsHv7uT/mSAvTK2/8yPaHfG0SMzPeV+oiJgmObp3lDywKRv3r9TE5yLKNHXdJeoSN5pikp3QdywLzYWRH3+xZbUtnkcS7q2v9xN/mdhyaShJ5mCDMrpFJ0rucm0DI9PQ0to/Ji8bGZmsbY428pZIiNp9b/LMrlDghTRCxT2utRnYP3kMQ7zHYvTpytw3JIW6J92WUPKOcINwTGo3dm3fHrO51N7b9SlbfYvu5xUhKz53MEp98HMm7Bt5ft7KlhSTe3vRVS1bmXhnkXol8jAlzWPbn6Oz/yz2Nnf9ecAVAkrykt0pSL5vRvbbvn07bz0sJeKnv2n8IAp7M9BfmBf8jE73Qv44k4uefNVGJEzME4Z43wsjrHNNz9Fj+8K5L216TFW9Gc1CG7/vyIto3NO6l3j13ksRbDb1Rfk/0xjBnobglPaVnVJODg4zMuoebW18v2AIgSTUHw88Z6Wk2p2M7V7mvJHf85sXIjr7/MmP9J04hicM+1n7Fh0d2Hvo4ScQvfQkrg9xk/3CgpnbMnx8y5gVgw+JgWNasYoM6ePBPnSRvQpIg4j60B0IvejX6Pkkc1rcn9yMNRnwBHTOvwlfyAiYBTk7QjF2+ferlIwVfACSpu6n9PlltZrM6JuEpPZPLf/mQ29F/UV37ksZSz2FG25KPhy/2n8UekYcJAE8HdXWK8JPuhrUbYymBsbVNm1gmKcfGdYs/hed+50VoFe0a+nbJx/DS0J2KeN5/7Mf9yWXyP8SNwA4akTVXxnZejusf6mpu/b2MuYPt657M3FoxD8jDye+1geqZqz/ZUaqfv+6qJZ8NXxvgElTcjFF6bi05uLhppM/3NHX8segKgCSlbK5D0l42s1u82rT8sysIIh91//mBjnnBv5TcVGxaEEwMX+hbyh4Qv9R5E+VVsxLVQbujdLg+1rE/zn9sU2OwT9Z8iu3s4KAwo1omzbLAuEW9I8mhA6bkvgow+1+/N+od4Q7UuHNPJ5SazkUXR2f/7dn64I2iLQCSZDO52yT9js3t2FWAsoRSF/OegLxcBXiu7z9Na116Xql83hnBknNyO/ouZcvnoejXVctkEgThnt9U9075auzjftz/YLY+yMlGLWxv9yQvqJRXyaXB2A1HxuwfLpn3BESvDN+vYZb9xT7YV6WUOmciQTh5UNiWDYsXx/4WjLxc8+1pWttlrX2Are4W4xmlZ9cQRB7kdvSdNa1j6X8t9s85rWPpf8290P9htnj80nNqJZb9ueh7Pc2dP81LKcxbG7VmmaQhtr1b/A+NV+KUMoLIh50DtyoIivdGjCDwtLP/VjZ0Po7rcvkc1w7OujRgbZi3B+XlbbDpbu541lp7C3uAezLMFPIifH1w4vT+vZ8p1s9X1/f6beHrQ1yDjvsc4xmlZ3Pjn5Osbsg2BTtKrgBI0shw+lOSXmEvcItXlVLqXJYF5kP0/KGWecGVRfc9zLzgyprw+cH/ly0cv+SF3Nvj6Oz/paTJXJ/XsT6f//ijH1910Mp2sie4JzW9iruF81EADoWJwX2D3ym2zzW4d/D+qG+Et87EPcCXJZSayuoeNyf/ZtXmhqv6SrYASNK8x6KvWukX7A6OldN0Quk6Bo58yD1/6G9nBldML5bPMzO4Ynpux6GZbNk8FPkZNTzfw8mTv7ZlF7TdnfeCmO9fIAiCyDOm5XAmcEny3AolatIEEXsDsMq9MnJX0XycXcP3KsfhHfvgXpuWfza3XDgo8mRaZEzeDwonqmF3Q/vPJH2P/cK1ywBGqTksC8yH8MWBD01bvfRfCv1z1K1saQlfGvgbtmj8x26ad3y4uWlkvtnd2P5zJ0qiK6HYKFwhqY/dwy3+yWXyP8xbw+I/IKzsi32fnRcEBfu9+T8EQSp8qe9aNmb8kmeUy+ctny46lPByba78Ms4UgGxzsMtY3cD+4Z707FrJZy4Rt2jfcNngwb23F+rvv6t399ejfUOcheKW8JSaybI/J2f/xlzz0ILgZQrA2xg4OP56STvZTdziVfhKXzCJIPIg93zf//OxtmUFdwl9xvpPnJLbMfCPbME8FPapk+RN4D1LzrHmuSiVu9mpsd2lX2bb4uUDxpo17CnuSU6dJK+cZYHxt+Kc1987VHD3x0QvR/fZgZDbz+OeYZb7Sl5USRAunv89e2W2PhikALyL7qb2e6z0MLuLYwNLylO6jhsC83IV4Lm+GTM7l84vlN932prlzbkX+i9gy8UvM7tGJknvcu/sr+5sQ8f9rv1aTu4pUWSXSorYa9zif2SCEidmCCL2A8Iq9/LQ1wtmrHv10NcVsuwvbon3jZN/OjfsOij05C1z8RdzsgBsbe78tWS+zn7j2mWAw0uLZLghMPYR5KX+k+pWL3H+67HpK1uC6NXBWrZYzIempMzcGo5NN32xq6ntCQrAUUia3BpJB9h3HJtlnJiRP4VZRj7kdvSvnRf8D2cvwVwUBGXhCwe5hycP/LMnyjuBq3MO2m9HwsDVX87ZArC5IdgtGdYQOygzi+8Z88EeGE4PHiz/mrOl/cDu79gDI7x1JvbgPaXrWPbnImO0Nrso2EMBOAY1vbmbJfsndiPHdurxvpJTWRaYl6sAzx76xzntS0537feqC648M3yu/zK2UPzS06pkxvOeJefGSempA9WTv+jy7+h0AdiwOBiWvJXsSg4OOhdOkpnIoBO7ocgM7Rtxblmgfa3/B3Y44gvouAfwiqSS51cShIMiafn2qZePUACOQ09j+w8ls4ndyTG+UXoWywLzIdzZf35de8t/duX3mdm29B9zO/s/wpbJQxGfWyuToHc56EfZxo4HnS+QBTHgJewySSPsU25Jnj5BCZ43noephVX0Ut+drvw6I7v6vyjLsr+4JU4eJ//U8QThnmEvTFxVCL9oQRSArfM7npLVF9mv3JNhWWB+SvGrQ1XT1lyxLu+z/5VX3BTtHqpki8Q9cpvDxx4cZG/uWthaEPeuFcyt3COhv1bSHnYux3ag2rSS50wgiHwMM8/1r5kWBHl74fu8oKVy+Pm+T7Il4pc8r0JedZog3LM7kUgVzOq1gikAj1y2Zr+RXcf+5Z50XY1MmmWBcYt6R5LegT135evfH9g/8n17KMedoDEzGU/pS6oIwsVSbtW6Zf7qgnl+TUGN2tW9Z95ujH7LbubYgDQuodQ0BqR8GHn24MKLW1vOj/vfndVx5UXR84c+xhaIX6quRmYcL+ZybhyUfj3v8fBrhfQ7F1QB2LB4cSiphV3NwUHpvEp5k3gGTPwNwBp/3+B3Yv9nXzt0rx3hxr/YB+yqtFLnTCQIJxuAaQmCoKDeYVNw1227Gzq6jXQ/e5tjEkbp2SwLzEsH2Nk/ZUbbkv8W1783e83Sfw53DX6Q5OOXnlMjedx066B7uhvatxZcoSzIFuyHV0oaYp9zi3/qePkfLCOIPMi9MHCrgmDsj+cg8IZ29d3Esr88HF+nlcs/hePLvZm/BkxoCvIdGAVZALZcGjxnpJvZ8xycocyulXgwSeyiPUMT6gb23TjW/05d7547oj3DLD6P+xzjGWVmcoXNyW0T6TPdC9t3UgBiNDSUukbSK+x+ju1QVSmlPlpBEPm4CvDsoU/OCFZMHqufP+2apSeEL/T9D5KOX/KiSTKVSYJwzy7fy3y2YMfrQv3FH/34qoNGamP/c0/qkmruUs4D25dLRHsHvjtmM51Xh++P+kI2bNwzzDJfKV6+5eYxZ+1Vmxuu6qMA5MGcx8JvSPo5u6FjA1baU4rXk+bnKsDzh+bVtS2ZMdo/d/anls3N7eifTsLxS8+slknxnA0H/Szb2PHdQv4ABb1XBUEQeda2SOKOJMckz61QYjJPKotdaGVfH757tH/s8Av99yjHYRa3xOS0/LNY9uegw+ceYwr6oCj4WtnV1LlN0j3sj45dBdDhN5XxnoA8XAXYNXBK3aolnxitnzej9Yorw5cG3keycR9E5vDb/kjCxQHua11Nnb8o9I9RFNeVzIhZKamPvdKx2ctJ4+Sfxg3jsbNW4a7+z84LguN+TO8/BEEq3NG/nlDjl5wyQYmTeNumgw7mrNdRDB+kKApA96L2lyTzGfZL92Rm18r4zGHiFu0bHjd4aM8dx/tzdh18/Vvh/pEMicY8qfGNUjO4j8bNgq2rH25sK4oVaEVzZ8lgb9lnJbODvdOxgWyCr+SF3MGcD+Fzff99Tlvbycf69y9p/+Spuef6/54k8zD7v7hK3gTes+SgZzO24vPF8mGKpgBsW7x8QIpWsX+6J8Vglp+JykDoDR/Yt+GYB4f94X12MOT28zyU5hSl2c1tY8yyjc1LiuYptEV1cPc0dn5PRj9lN3XsoOFyZt7knu+fNqd92YKjnv13tizM7ez/KAnGj6/NnB3Jurob2h8opk9UdO3eGq9FUsjO6hZuaMqTyGro5f5vHPXfe7H/6wpZ9hc3bpx1t0uHYbSs2D5U0RWA7IK230j6Kvura+WZJU35Er4ycOL0VVe0Humfn7Fyyfro1UEePB/3ISKWzrq7cextWxd2/pYCUAizTRO2S3qDvdax2c3ktPyPTCCIfFwI2DnQeVEQvOer5OYF/1I+srPvKhKLn8/Ds1y1z0v4nyrGD1aUBWBzQ7DbSqxddlB6Vg2PNc1HATgwnE717vn6e/25wQPmu7Z3JEViMU8wU57S07lPxknWdnRd2rqXAlBAanvDWyT9kb3XsYGOF5vkTe7ZQ38/K/jEGe/0/08LrjgrfO5QE0nFLzWtWqaM9yw5ePb/vc1EdxTrpyvaArBhcTBsjVawA7uHV5vmaSgbjkxud/SOywLNa7n77LDlC+i4B+HKpJLn8wptJycsnlmWrQ9yFIAClG3o+LGV3chu7NxBpcxM7jHLy1WAHf3nTV/T8n/+5X+vW33FP+V29J1BQvFLz62V8ehdzhVmY+/rXtCxuajLZ/GfbfzlkkbYnd3in1Yu/wNlBBH7qGZlX+7/yl/+5/CVwdsJJw/HwQfK5H+QZX8OGo6MKfoHyxV9Acg2tP7BSLexPzs485lTKzHziV24e3BS3cpPXvvn2f+KK26Jdg9xDTpuCaP0vFpycLIn2xu3Luh4uujnx6WwMWf9+LpJST/3J0lcd3bMUM9uDT9xgCDiPvAn+CPeWR+o8XTAD5/sfS06NMKzmmOWumCS0nMYkhz0WiYKz9jYHPRyBaAIPHLZmv3GqJP92sFBsK5GZhx3P8c+wzmYS5o39nzH7hv6ASf/PBSwcQmlplURhJuz/9WlcPIvmQIgSdUHptwh6Ql2b8cGwoyn9CUMhPmQe+5gY+75vrkkEb90XbVMmudhuHf21y/nPR59s1Q+bsnsgRsWLw49RS3s4e5Jnlchr5onoMVuxBrleN5/7INubVrJcyYShIuTf5llQRBEFIAi1NW4tkfSD9jPXdsLjTJ8F4oSkZnD8/4dnf3fnW1qf6Skht5S28bh4YcDDbK3uyXxgTIlTmU5FIpb8vQJSryft2I6x2gg4YetpfaxS64AbG3oeF6yN7LHOzgzmlsrk2BmhCLlG6VncaXL0dn/dVvmBy9QAEphW6ej6yS9zF7v2M5YkVTyo5UEgaKUvmCSzEQWXDjoxfKR8HMlOeaW4ofO1geHJLuG/d7BQXJ6FS9FQdEx430leQmWm9vGmisfWBT0UwBKSE9Dx7ckPc7u75ikp3Qdr0VFccnwGmw3WT3a3dh2b6l+/NLdI42xNjItklgH5Rj/nAp5J2QIAkUhcWJG/pRygnBPZBOmRcaU7DmgpCtptrn9MUnf5jhwrJtJysytYakUimGiofRclv25Ofs3X8kuaP9lKUdQ8tekbBiulNTL0eDYrOl94+SfxrJAFLbkRyYocSJXsxzUa6Pc2lIPoeQLQHZh8Ko1+gzHg3sys2tlfGZOKNDJf8pTqo5lf47O/tdlFwavUgCgcWHFDZJ5hiQcG0An+EpexHsCUJhSF1fJK2dFi4MjyzMZO/FWcqAASJI2Ni8ZsoZlgS5KX1wpb0KSIFBYA2uFr9T5lQThZgFo2di8ZIgcKAB/lm3ouNfKPEQSjkl4Ss1kWSAKrLjOrpX4+spFW3oa235CDBSAv+6FipZJypGEW5JnlMv/G56fjsLgn1wm/8Ms+3NQTrItxEABeFs9jZ1PWpmvkIRrzezwUirmUyiEfTXFmy3dZHVLT2PnkwRBAXhHaeXaJO0jCcd21Nq0/LN4hzrcljx3ohI1aYJwz76UCdcTAwXgXW1qDPbJiB3FxXI2s1omzS4LRyf/6QSPsXZ128i2bWoMmNhRAN6bTYW3SOJSkWsHcZmv1FSWBcJNqelVMhmW/TnoySgd8dUuBeDIZOuDnJVaSMI9yQsr5VWmCAJuDaRVKaXOrSAIF7eNiZZl6wNu7qYAHEUJaOzYIlmWi7h2FcAzSs/mMivckplTKyW4TdW58cLq3q6GtSzvpgAcPauoRRIPjHCM/6Fy+aeUEQSc2R8T7I8uGopMyAPeKADHehUgeEayPDLSQek5Ncy4kP8ZJlek3N020g2Hx3BQAI5RJorWSXqVJBzbcavSSp3DskDkV/IC7klx1KvpKOQlbxSA47OxOeiVsWtJwj2pumruukb+Bs+yhFIXsyrFzdm/WbmxOeA17xSA4zd3W/QVWf2SJBw7yNMJpaZz+RV5KqAzeC6Fo7bPeSx3FzEcSVHCEanf/KmZiszDZOYYa9V31wuK9g6TBeKbOdWmNf6fTpYMw4FrI4KMretp6HycKLgCMGp6FnQ+KqN7ScK1Cnv4PQFAnDJzazn5u+lbnPwpAGMilLlSUj9JuMU/uUz+h3j7GmLa386YoARvp3TRId9j2R8FYIxsbWh/UdLnSMI96Tm1MiwLxFhLeErP4r4TN5nrHloQvEwOFIAxM9g7/jpJL5CEYztyha/k+ZUEgTGVurhS3oQkQbjneZvO3UgMFIAxtW3x8gFrTCtJOHgVYFqVzHifIDA288tyX6kLJxGEi6xWZOuDQYKgAIy57IK2uyU9QhKOSXq8jhVjVzBn1cgkGTLdO/ebnp6mjh+QBAUgpqmAsUbeUkkRYbjFP3uiEidmCAKjKvG+jJJncKOpg0KjaBkxUABi1d3Y9isj802ScKyb6fANgSzRwqjuU3Mns0+56Y6exs5/JwYKQPwDg29WS+Jxk8zWUMT8sycqcUKaINyz346EncRAAciLrkvbXjPGXEcS7uH7WowK7itxlpXWZRcFe0iCApA31QdyNxrpaZJwC3dsY1SK5LRJrCxx8/T/h4M1k28jBwpAXm1YHAzLmlUk4Z7UxZUyExm8cYyDY0VSyfMpkU4WfGOXb596+QhJUADyrrup/T5ZbSYJxyQ8ZWbWkAOObfbP0yXdPPlLP+5uWLuRJCgA7gRpE8sk5UjCLTy3Hce035xcJv9D4wnCPcPWagUxUACc0tXc+nsZcwdJuIc3t+Hoppi8YdLh2f8tPU0dfyQJCoBzUjbXIWkvSTi2k9emlTxrAkHgyI7jj1bIq04RhHt2R+lwPTFQAJy0qTHYJ2s+RRIODuozamTS7O54jxlmOqHUJVUE4ebsvz1bH7xBEhQAZ9lM7jZj9FuScGxHL0sodTEDO95dekaVzLgEQbjnN9W9U75KDBQAp2Xrg5yNeDa1i5IXVMqbxKVdvMNgWJVW8pwKgnBRZFs2LF4cEgQFwHk9TWu7rLUPkIRbjGeUns2yQLzD7H9OjeRxs6iDvtfT3PlTYqAAFE6w1iyTNEQSbvFPHa/EKWUEgbfuFx8ul89+4WBr14C1IQ9aowAUlu7mjmdl9HmScE9mTq3EA17wH+cYzygziytDTrL2s9mmYAdBUAAKzvBg6mpJr5CEYzt9VUrJc/muF4elLpokU5kkCPdm/y8lzbjPEAQFoCA9+vFVB61VB0m4Jz29SibD3d4lf44p85WcyvP+HZ39r9zccFUfQVAACta8x8OvWekXJOHYwJ9OKMVrXkteZma1TIph0Llzv7Stp6HjHpKgABS0IAgiz5iWw/s0XJI6d6ISNWmCKFGJyRklzppIEO6JPJkWGcOYSQEofN0N7T8zVt8lCdcuAxileOZ76W77OTXiVlAnfaO7sf3nxEABKJ5Ka8OrJPF9lmP894+Tf1o5QZTadp9SLp+3RLroYE5eGzFQAIpKtjnYZaxuIAn3ZGbVSD5zwZKR8JSewbI/F1npmocb21g5RQEoPgMHx18vaSdJuMVUJJU6v5IgSkTqkknyJvgE4dzZ3zw3Lqq4mSAoAEVp2+LlA8aaNSTh4Enh4ip55SwLLPqyN8FX6kKW/Tl5/vfslRubl/D0VApA8epuar9H0laScOzEkPKUquOycLHLzK6V4eseB8/+6s42dNxPEBSAohdGtkVSRBJuSX5kghInZgiiSCVOysg/bTxBODgkvjkmggJQ/LY2d/5aRl8jCdcuAxil59ZKhhli0W1avfkOCLatg5N/c/vWhZ2/JQkKQOnMNhW2SjpAEo7NEk/MyJ/CssBi459TIe8Eru44aL9GcuuIgQJQUjY3BLslcy1JuCczq4bHwxZV2/aU5rHPTjJGa7OLgj0kQQEoOTW9uZsl+yeScGxQGu8reRF3iheL9PQqmTJWeDh3nElPHaie/EWSoACUpA2Lg2FZcxVJOHjSuHCSTAWviC34Aa4yqeRHKwnCQdZGy7ZPvXyEJCgAJaunqeNHkh4kCcf4RpmZLAss+CI3p1YmwY1/Dp7+f9jTtHYTOVAASl6Y0HJJNGHXOsDp5Uq8n+fFF6rEB8rkn8qyPwcNe6G/khgoAJC0dX7HU7LiuzAHZeZNljxmkIU3shll5nAFx9HZ/81dC1u594kCgP8wEvprJXE3rGsHSHVKybN5Z3yhSX20Ul51miDcszuRSLH6iQKA/90jl63Zb6WAJNyTnlEjk+FQKRQm4yl1Mas43Nw4ds2W+at5/gkFAH+ptnfKFyU9QRIunlBYR14ws/8ZNTLjWPbn3HEk/XrutujrJEEBwNvYsHhxaIyWkYSDJ5XzK+RVpwjC9QGtOqUUX9k4WgDs0iAIeAcKBQDvpLuho9tI95OEa0eKUXpOLTk4Lj2nlps23XRPV2Pnw8RAAcB7bRQ/vFLSIEm4xf9AmfwPsqzM2e1zWrn8D5QRhHtT/wETmjUEQQHAEdhyafCctfZmknBwhjmXB8s4eY5JGKV5cJOTrHR998L2nSRBAcCRykTXSHqZIBw7YCqTSp5XSRCOSV40SV4lj2520K6UMjcQAwUARyFbHxyy1raRhHtSvFzGrdl/ma8UL29yc/ZvzIrNDVf1kQQFAEdp3uPRNyX9nCQcO+GkPKWnsyzQFWle3+yqn2UXtH2PGCgAOAZBEESetS2SLGm4xT+3QonJPGku3xKT0/I/MoEg3HN47DKGsYsCgGPV1dS5TVZ3k4RjVwEkpedOlgw3BOZvI5jDN2WShIPHh/lqV1PnL0iCAoDjPZhyZpUkvkdzbfZ5UkbJ08oJIk+SZ5YrcRJva3TQwRGZTmKgAGAUdC9qf0nS9SThnvTsGhmfOWjspdg3Stex7M/JbWPMpx5ubHuFJCgAGCWDveNvkMwOknBssJvgK3UBd6DHLXVJlcwEnyDc82w6nHgLMVAAMIq2LV4+IEWrSMI9yUuq5HEyiq90VSQpXe7O/pdtbF4yRBIUAIyynsbO78nopyTh2KDnG6VncDk6LplZNRJfu7h4JHR1N7Q/QA4UAIwRa7wWSSFJuMWfwg1pseT8/nHyufHSRTlrTAsxUAAwhrIL2n4j6ask4drkxyg9t4YlaWOdMW9kdHTb2NuyDW2/IwgKAMZY0oTtkt4gCbckJmfkn8W76MdK6pyJ8mp5+JKD9nkJ/1PEQAFADDY3BLuttJ4k3JOeWc1jacdigpn2lKrj8ctOsraj69LWvQRBAUBMDtZM/rykP5KEYyeqMl+pi6sIYrRn/9OqZMbxAiYHz/6/t5noDnKgACBG26dePiJ5V5KEe5IXVsrwatrRG6SqUkrxCmY3C69nlmXrgxxJUAAQs57Gtp9Y2Y0k4dygeHipGkZFenaNlOD2Sufm/sbe172gYzNJUACQt7ONv1zSCEG4xf9wufxTygjieHM8dbz8D44nCPcMR8bwYDIKAPIp29D6Byt7K0k4OHOdUyN5zFyPWcIcnv3DwYmHPrd1QcfTBEEBQN7PNNE6Sa8ThGMHV1VayXNYFnisUh+tlDcpRRDueS0Thp8mBgoAXLgKUB+8YWR5/aaL3ayuhrvXj2VgKksodQmrKVxkjVm1sTnoJQkKABxR3XvmlyX9O0m4xWQ8TmTHMvuvq5ZJMzw56FfztuW+RQwUADhkw+LFoadoGUk4eDI7r0JeNU+wO+JBqTat5Nl8deLi5N9aszQIgogoKABwTFfj2h7Jfp8kXDvKjDJzeYb9kcrMrZUMN0+6xhjdlW1qf4QkKABwVGjMVZIGScItiZPHyf8Qb7F7L/7p5Ur8DW9VdFC/54VtxEABgMO2NnQ8L9kbScI96Tk1MjzQ5l1akqfMLK6UODn7t+a6LfODF0iCAgDHlY9E10h6kSQcO9gqkkqeX0kQ7yA1dZLMRJ8g3PPi+FyOSQUFAIXggUVBv2TbScLBqwDTqmTGc5L7qxnmeF+piyhHjs7+rzw8poACgILQ09DxLVk9ShKOSXpK81rbv5KZVSOTZDhyjtWj3Y1t9xIEBQAFVduNlWeXSmLJjmP8sycqcQLLAv9D4n0Z+VO4QdJBkTy7VMZYoqAAoOCuAnRul3QXSTjWzSSlWer2v7KYQxZuzv7NV94cQ0ABQEEew2G4UhKP7XRu1jtO/unMev2zJipxYoYdwj29NsqtJQYKAApYdmHwqjX6DEm4JzO7tL/3NilP6RncD+Ho7H9ddmHwKkFQAFDgxoUVN0jmGZJw7ARY7itZwne+J6dOYkWEm3vmMxk7kVeMUwBQDDY2LxmStJok3JOeOknehGTpDTwVvtIXTGIHcHL2b5e+OWaAAoBi0NPY/n0r8xBJOCbhKTWz9C6Dp2fXSj43/jloS09Tx78RAwUARcYcfltgjiTckpwyoaSef++fXCb/w9wA6aCcZFuIgQKAorwK0PmklfkKSbgnM7dWJTEfNubwEki4x+qWnsbOJwmCAoAilVauTdJeknDsQKxNyz97YtF/zuS5FfKqU2xw9+xLmXA9MVAAUMQ2NQb7jAwHuoNSM2pk0sV7SJp0Qum6Kja0i5N/q9ZNjcE+kqAAoMhF6dwXJHGpz7WDsSyh1MXFe2d8anqVTCbBhnbPk8qEdxIDBQAlIFsf5KzUQhLuSV4wSV5l8V0i96pSSp1bwQZ2cduYaFm2PuDmYAoASqYENHZskexPSMItxjNKz64pus+VnlMrJVj259z+ZnVvV8NalgdTAFBqrKIWSTzwwzH+h8bLP6WMz4OxNpjztJIYKAAoyasAwTNG+gJJMGMesxlmkV7RKIoJgLE3bG3oeJ4kKAAoUUNDqXWSeOmHawdmkXxnnrygsijvaSj8ZqaXlIquJwgKAErYox9fdVDG8tpPBxX6XfOHVzWw7M/J8781a7L1wSGSoACgxM3dFn1FVr8kCccG6QJfN1/szzUo4Nn/Y90Nbd8mCHB0QkEQRErYFkmWNNxSqE/OK5UnGxYgK9kWGcOxDgoADutZ0PmopA0k4dpsrTCfnV8y7zYovNP/N3saOh8nCFAA8BahMSsk9ZOEWwrt7Xml9nbDAnLIT4StxAAKAP7K1ob2FyV9jiTck55dK/kFMKdOeErNrGaDOclc99CC4GVyAAUAb2uwd/x1kl4gCccO1Apf6Qvcf09AeuokeROSbDD3PG/TuRuJARQAvKNti5cPWGO4TOig5NRJMuN9d+eX5b6SF1WyoVxktSJbHwwSBCgAeFfZBW13W+lhknDsBJvylJ7h7uX1zKwamSRDinvnftPT09TxA5IABQBHcKYx1pPXIikiDLf4Z01U4sSMc79X4n3j5J9RzgZyT5iwpoUYQAHAEetubPuVkfkmSTjWzfTmewKMcet3muvW74Q/u6Orqe0JYgAFAEc3sPtmtaReknBttp2RP8Wd2bZ/9kQlTkizYdyz346EncQACgCOWtelba8ZY64jCfc483170lO6jmV/LrLSuuyiYA9JgAKAY1J9IHejkZ4mCbeY8b5SDtxxn55W5fTKhJLdP6SnDtZMvo0kQAHAMduwOBiOjFaShHtSUyfJTMzfyderSCp5fiUbwkGRtHz71MtHSAIUAByXbEPH/bLaTBKOSXjKzMrfewLSc2pkEtz45+Ds/8fZxo4HSQIUAIzOjmITyyTlSMIt/unleXnufuLkcfI/xLI/Bw1bqxXEAAoARk1Xc+vvJX2JJNyTiXsJnmcO/5twjrX28z1NHX8kCVAAMKpGcn6HpL0k4dhBXJtW8uyJsf17qfMq5FWz7M9Bu30/tZ4YQAHAqHvksjX7jdE6knBPqq5aJj32h7PJeEpdUkXgLs7+Zdu2zF99gCRAAcCYiFLh7cbotyTh2IFclojlxJyuq5EZlyBw9/ymtvfMrxEDKAAYM9n6IGejaBlJOHgV4KOV8ialxm6wqEorec5EgnaymduWDYsXhwQBCgDGVE/T2i5JPyIJxySM0rNrxm72P6dG8lj256Dv9jR3/pQYQAFALEyk5ZKGSMIt/qnj5X+wbPR/7ofL5Z9SRsDOHYgasDZcTRCgACA23c0dz8ro8yThnvTsWmkUH9BjPKPMrBqCdZG1n802BTsIAhQAxGp4MHW1pFdIwrGDuiql1HmVo/bzkhdWylQmCda92f9LSTPuMwQBCgBi9+jHVx20Vh0k4Z7UtKpRuVvflPlKXcyyP0dn/ys3N1zVRxCgACAv5j0efs1KvyAJxyaHaU+pUXhNb3pmtUyKYcK5c7+0raeh4x6SAAUAeRMEQZSwdunhMQlOXQU4Z6K82mN/Yl9ickb+WSz7c1DkybTIGI45UACQX11NnduM1XdJwrXLAEbpObXH/nfn1ohFf076Rndj+8+JARQAuDElseFVkvg+0jH++8fJP+3o39rnTylX4qRxBOiegzl5bcQACgCckW0OdhmrG0jCPZlZNZJ/5HN54xulZ7Dsz0VWuubhxjZW3oACALcMHBx/vaSdJOEWU5FU6sJJR/znkxdXyZvgE5xzZ3/z3Lio4maCAAUAztm2ePmAtZankjkodXGVzBGc1M0E/6jKAuJsclq+sXkJT98EBQBuyjZ1fkfSVpJw7NzhG6Xr3vuyfnp2jYzPrX/uzf7V3dPY/kOCAAUATgsj2yIpIgm3JM8sV+KkzDv+/4mTMkoeww2DGPtD6s1jCqAAwG1bmzt/LSPeTe7cZQCj9NzJb7u0z0hKz50sGWb/7k3+ze1bF3b+liRAAUBhzDYVtko6QBJuSUxOy//IhL/67/65FUpMThOQe/ZrJLeOGEABQMHY3BDsltU1JOGe9Kyatzze16Q8padXE4yDjGxndlGwhyRAAUBBqTkY/qtk/0QSjp1UynylLvpfd/qnplfJlCUIxrmTv546UHPCl0gCFAAUnA2Lg2FZcxVJuCd50SR5lUl5lUklR/HVwRg91kbLtk+9fIQkMIYlExhb9Q9evVFSI0m4JffMIck38j84njDcO/3/sKex8z+TA7gCgIIWJrRcEjMZx/inlXPyd9OwF/oriQEUABS8rfM7npKxt5ME8N6MdFPXwlbunQEFAMVhZCQZSOJuZuDd7fYSyeuIARQAFI1HLluz30oBSQDvNv23a7bMX83zM0ABQHGp7Z3yRUlPkATwNud+6ddzt0VfJwnEuM8B8fnYpqs/Zq26SAJ4C+vJzu1q7HyYKMAVABSl7oaObmvsfSQBvMU9nPxBAUDR8xPRCkmDJAFIMhowoWklCFAAUPS2XBo8Z629mSQAyUrXdy9s30kSoACgNGSiayS9TBAocbtSytxADKAAoGRk64ND1to2kkBJz/6NWbG54ao+kkA+sAoAeRz9rKnftP4xSZcQBkrQz3oa2mfJGEsU4AoASqx+Gmsjs1QSAyBKTWQ9s5STPygAKFnZ5vbHZHU3SaCkuq/MV7ML2n9JEqAAoLQHw5xZJYnvQVEqDo7IdBIDKAAoed2L2l+SdD1JoCQKrzGferix7RWSAAUAkGTT4Wcls4MkUOSeTYcTbyEGUACAN2Xrg0FjtZIkUNRF16hlY/OSIZKAC1gGCKfUb7o6K6u5JIEiHG67ehrbLyUHcAUAeNsZktciKSQJFJmcNaaFGEABAN5BdkHbb2TNnSSBopr7S7dmG9p+RxKgAADvOlXy2iW9QRIoEvuMn7iaGEABAN7Dw82tr8saBkwUx+zfqL3r0ta9JAEKAHAEemtrb5H0R5JAYbO/j1Lhl8kBFADgCG2fevmI5F1JEijo2b9nlmXrgxxJgAIAHIWexrafWNmNJIEC9YPuBR2biQEUAOCYplD+ckkjBIECMxx6Wk0MoAAAxyjb0PoHK3srSaCwiqs+t3VBx9MEAQoAcDzS0TpJrxMECsRrmTD8NDGAAgAc71WA+uANI8vrU1EQrDGrNjYHvSQBCgAwCuY8Ft0haTtJwHHb523LfYsYUAh4GRAKxryN62cZY7ey38LVyb+1Zk62qf0RogBXAIBRdHhgtT8gCTg5mzK6i5M/KADAGEkkouWS+kkCjun3vLCNGEABAMbIlvnBC0a6iSTg1Ozfmuu2zA9eIAlQAIAxNH4kvFYSgy1c8eL4XO5GYgAFABhjDywK+o1MO0nABdZo+QOLAr6WQsHhbmoU6KhrTf2D6x+W0UzCQP72Qz3a09g+W8ZYwgBXAIBYqqux8uxSSRFhIE8ieXYpJ39QAICY9TR0bpf0bZJAfkqovvzmPghQAIDYd2DfWymJx64ibr02FwbEAAoAkCddl7a9JpnrSQIxz/6D7MLgVYIABQDIo5re3A2SeYYkENPZ/5maAyGvqEYR9FigCNQ/uP7vJHsvSWDMWS3saer4N4IABQBwxLwH1282svNJAmN37jcPZRvbF5AEigFfAaCI2my0TFKOJDBGcm/uYwAFAHBJT2Pnk5K+TBIYo/n/59/cxwAKAOCalMJ2SXtJAqPsdZuOriYGUAAAR21qDPYZmfUkgVGd+1t1ZOuDN0gCFADAYVE69wVJvyMJjJJ/rz045SvEAAoA4LhsfZCzEjdrYbRm/y0bFi8OSQIUAKAQSkBjxxYj/ZgkcFyMNmSbOrIEAQoAUEgitUgaIggco0EbhSuJARQAoMB0N3c8a6QvkASOhTX2hmxTsIMkQAEACtDQUGqdJF7agqNj9JJSES+ZAgUAKFSPfnzVQSN1kgSOavYf2dXZ+uAQSYACABSwOY+Fd8rqlySBI5z9P5Zt7LiLIEABAApcEASR8cxSSZY08F6Tf2PNUhnDvgIKAFAMuhvafyZpA0ng3U//+mZ3Y/vPCQIUAKCIhMaskNRPEngHh/xE2EoMoAAARWZrQ/uLkr2BJPAOs/9rH1oQvEwQoAAARWiwt/zTknaSBN568jfP2Ux4E0GAAgAUqW2Llw9Ilsu8eAsjrcjWB4MkgRLb74FSm+1ZM2/T+p8aaTZhwMr0ZBvbP0YS4AoAUPS111hPXoukiDBKXpiwpoUYQAEASkR3Y9uvJH2DJEq+DH6pq6ntCYIABQAopZ3f99ZIOkASJWu/Hc6tJQZQAIAS03Vp22tWuo4kSpQ1QXZRsIcgQAEASlBtb3iTkZ4midJipKd6a2tvJwlQAIAStWFxMBwZrSSJ0hJJy7dPvXyEJEABAEpYtqHjfslsIonSYK19INvY8SBJgAIAQF7kLZfEjLD4DScifwUxABQAQJLU1dz6e0l3kETRz/4/37Ww9U8kAVAAgD8byfkdkvaSRNHa7fup9cQAUACAt3jksjX7jdE6kijS2b9s25b5q3nuA0ABAP5a9YEptxmj35JEcTHSr2t7z/waSQAUAOBtbVi8OJTUQhLF1gBMy5vbFgAFAHh73Q0d3ZJ+RBJF47vdDe1biQGgAADvPWGMtFzSEEkU+obUgLXhaoIAKADAkV0FaO54VrL/ShIFX+Q+k20KdpAEQAEAjtjwUHq9pFdIomDt8r3MZ4kBoAAAR+XRj686KGPbSaJAZ//WrNzccFUfSQAUAOCozd0Wfd1KvyCJwmKlbd2Nbd8hCYACAByTIAiihLVLD59TUCAiT6ZFxrDNAAoAcOy6mjq3SWI2WTDM17sb239ODgAFADhuNgpXSuL7ZPcdzMlw3wZAAQBGR7Y52GWNuKPc/dn/+ocb21i5AVAAgNEzdGD8ZyTtJAlHWfNcJprIsxsACgAwurYtXj5greWpcs5O/rV8Y/MSnt4IHPEhA+Co1D949U8lzSEJl2b/6u5p6vhbggC4AgCMmTCyLZJ4s5xDm+TNbQKAAgCMna3Nnb82Mrxb3p3Z/21bF3b+liAACgAw5nyTa5N0gCTybr+XTKwjBoACAMRic0OwW1bXkER+GdnOrktb95IEQAEAYlNzMPxXyf6JJPLF/v5AzQlfIgeAAgDEasPiYNgYbwVJ5Ov8b5dvn3r5CEEAFAAgdt0N7Q9IepAk4mWk+3ua1m4iCYACAORNmNByScxE4zOc87SSGAAKAJBXW+d3PCVjbyeJ2Gb/N21d0PE0SQAUACDvRkaSgaQ9JDHmXvMSyeuIAaAAAE545LI1+2XtWpIY89n/mi3zV/P8BYACALij5uCZX5L0BEmMmV/NeSz8BjEAo1aoAYyWv31wXX0kr5skRp31ZOd2NXY+TBQAVwAA53Q1ru2xxt5HEqPuHk7+AAUAcJqfiFZIGiSJUWI0YELTShAABQBw2pZLg+dkdBNJjBJrPt29sH0nQQAUAMD9c1YqvFbSyyRx3F4sH8ndQAwABQAoCNn64JA1XLYehSq14oFFQT85AKOPVQDAmJ27rKnftP4xSZcQxjH5WU9D+ywZY4kC4AoAUED12lgbmaWSOIEdvch6Ziknf4ACABSkbHP7Y8boLpI4andmF7T/khgACgBQuIbNakmHCOKIHbRh2EkMAAUAKGjdi9pfMtZcTxJHxkrrsguDV0kCoAAABS/K5G6QzA6SeE/PjosqvkAMAAUAKArZ+mDQWK0kifeY/Ru1bGxeMkQSwNhjGSAQo/oHr+6RNI8k3taWnsaO+cQAcAUAKMY5boukkBz+Ss4abxkxABQAoCj1NHb+u6y5kyTeyki3ZhvafkcSAAUAKOKprtcu6Q2S+LN9xk9cTQwABQAoag83t74uazjh/cfs36i969LWvSQBUACAotdbW3uLpD+ShJ6MUuGXiQGgAAAlYfvUy0c8E11R8gOQiZZl64McewRAAQBKRlfD2oes7MYSjuAHXQ1rH2JPACgAQAmKlkgaLsEPPhx6Ws32BygAQEnKNgbPyOrW0vvk9oatCzqeZg8AKABAycrYMJBUSi+/eS0TRbwcCaAAAKVtY3PQa62CEpr9r9zYHPSy5QEKAFDy5j0eflnS9hL4qNvnPhZ9my0O5B8vAwJcKQEb188yxm4t4uPSWmvmZJvaH2FrA1wBAPCmbFP7I8bq+0X8Eb/NyR+gAAB4GznPLJfUX4QfrT+RCNvZwgAFAMDb2NrQ/qI19sZi+1zW6Not84MX2MIABQDAO5gwHF0nqZhOli9OGA5vYssCFAAA7+KBRUG/kSmay+XWaPkDi4J+tizgFlYBAE6eNa2p37R+q6RZBf5JHulpaJ8jYywbFeAKAID3rObGytgWSVEBf4pIxrZw8gcoAACOQk9D53ZZfatQf38rc0dPQ+d2tiRAAQBwtAdo0lslqRAfm9ub8E3AFgQoAACOQdelba9JpvBenGMUHP7dAVAAAByTmt7cDUYqoFfn2j/0Vk/+AlsOoAAAOA4bFgfD1mp1wUz+jV2+ferlI2w5wPFjlQiAwlC/8epNMlrg+Oz/Jz2NnZextQCuAAAYrYPVJpZJyjn8K47ImivZUgAFAMAo6mpu/b2kLzs8+7+lp6njj2wpgAIAYJSlFLZL2uvgr/a6TUdXs4UACgCAMbCpMdhnJfdOtMa2Z+uDN9hCAAUAwFhJh7dK+p1Dv9Fvag6ceScbBqAAABhD2fogJxu1OPMLRbZlw+LFIVsGoAAAGGM9TWu7jPTjvP8iRht6mjt/yhYBKAAAYpt5q0XSUB5/g0EbhSvZEAAFAECMups7nrXW3pLHX+Gz2aZgB1sCoAAAiNnIcPpTkl6J/R82eilpMtezBQAKAIA8ePTjqw5a2c64/10rs2pzw1V9bAGAAgAgT+Y9Fn1VVr+Mcfb/WHZB290kD1AAAORREASR8cxSSTaOyb+xZqmMsSQPUAAA5Fl3Q/vPJH1v7Cf/5hvdje0/J3GAAgDAETYKV0gay+/lDyW8XBtJAxQAAA7JNge7JPu5MZv9G3PNQwuCl0kaoAAAcMxgb/mnJe0c9R9szXNRKnczCQMUAAAO2rZ4+YBkW0d99i+tyNYHgyQMFA9DBECRsdbM27T+p0aaPTo/T909TR1/S7AAVwAAOF3rjY0iu1RSNAo/LfTkLSNUgAIAoABsbe78taRvjEKZ+FJXU9sTJApQAAAUysHte2skHTiOH7HfDufWkiRAAQBQQLoubXvNStcd8w+wJsguCvaQJEABAFBganvDmyT7p6P9e0Z6qre29nYSBCgAAArQhsXBsOStPNq/F0nLt0+9fIQEAQoAgALV09j+Q8lsOtI/b619INvY8SDJARQAAIV+oEfecklHMqMfTkT+ChIDKAAAikBXc+vvrcyX3vMPGv1r18LWP5EYQAEAUCRyuUSnpHe7q393wkteQ1IABQBAEXnksjX7jey6d/r/rVXrlvmrD5AUQAEAUGSqe8+83Rj99i//u5F+Pe/x8GskBJQOXgYElJiPbbr6Y9aq6y0DgTFzuxvat5IOwBUAAEWqu6GjW7I//PPJ3+o7nPwBCgCAEpDwo+WShmQ0oMisJhEAAErExx68+tMf23h1QBJAafKJAChN6Si81g+VIwmgNP3/TF3jKRI/ozYAAAAldEVYdGRhdGU6Y3JlYXRlADIwMjQtMDctMjRUMjI6Mjg6MDYrMDA6MDCzVx8QAAAAJXRFWHRkYXRlOm1vZGlmeQAyMDI0LTA3LTI0VDIyOjI4OjA2KzAwOjAwwgqnrAAAAABJRU5ErkJggg==;" parent="148" vertex="1">
                    <mxGeometry x="55.40000000000009" width="34.6" height="30" as="geometry"/>
                </mxCell>
                <mxCell id="116" value="S3 Bucket (Frontend)" style="text;html=1;align=center;verticalAlign=middle;whiteSpace=wrap;rounded=0;" parent="148" vertex="1">
                    <mxGeometry x="10" y="93" width="60" height="30" as="geometry"/>
                </mxCell>
                <mxCell id="151" style="edgeStyle=orthogonalEdgeStyle;html=1;entryX=0;entryY=0.5;entryDx=0;entryDy=0;entryPerimeter=0;exitX=0.5;exitY=0;exitDx=0;exitDy=0;exitPerimeter=0;" parent="106" source="131" target="111" edge="1">
                    <mxGeometry relative="1" as="geometry"/>
                </mxCell>
                <mxCell id="141" value="" style="sketch=0;outlineConnect=0;fontColor=#232F3E;gradientColor=none;fillColor=#8C4FFF;strokeColor=none;dashed=0;verticalLabelPosition=bottom;verticalAlign=top;align=center;html=1;fontSize=12;fontStyle=0;aspect=fixed;pointerEvents=1;shape=mxgraph.aws4.endpoints;" parent="106" vertex="1">
                    <mxGeometry x="258.87" y="260" width="40.25" height="40.25" as="geometry"/>
                </mxCell>
                <mxCell id="153" value="内部NLB" style="text;html=1;align=center;verticalAlign=middle;whiteSpace=wrap;rounded=0;" parent="106" vertex="1">
                    <mxGeometry x="553.5" y="204" width="91" height="26" as="geometry"/>
                </mxCell>
                <mxCell id="154" value="内部ALB" style="text;html=1;align=center;verticalAlign=middle;whiteSpace=wrap;rounded=0;" parent="106" vertex="1">
                    <mxGeometry x="233.5" y="204" width="91" height="26" as="geometry"/>
                </mxCell>
                <mxCell id="143" value="" style="sketch=0;outlineConnect=0;fontColor=#232F3E;gradientColor=none;fillColor=#8C4FFF;strokeColor=none;dashed=0;verticalLabelPosition=bottom;verticalAlign=top;align=center;html=1;fontSize=12;fontStyle=0;aspect=fixed;pointerEvents=1;shape=mxgraph.aws4.endpoints;" parent="106" vertex="1">
                    <mxGeometry x="360" y="260" width="38.5" height="38.5" as="geometry"/>
                </mxCell>
                <mxCell id="160" style="edgeStyle=none;html=1;entryX=0.5;entryY=0;entryDx=0;entryDy=0;entryPerimeter=0;" parent="106" source="154" target="114" edge="1">
                    <mxGeometry relative="1" as="geometry"/>
                </mxCell>
                <mxCell id="162" value="" style="sketch=0;points=[[0,0,0],[0.25,0,0],[0.5,0,0],[0.75,0,0],[1,0,0],[0,1,0],[0.25,1,0],[0.5,1,0],[0.75,1,0],[1,1,0],[0,0.25,0],[0,0.5,0],[0,0.75,0],[1,0.25,0],[1,0.5,0],[1,0.75,0]];outlineConnect=0;fontColor=#232F3E;fillColor=#ED7100;strokeColor=#ffffff;dashed=0;verticalLabelPosition=bottom;verticalAlign=top;align=center;html=1;fontSize=12;fontStyle=0;aspect=fixed;shape=mxgraph.aws4.resourceIcon;resIcon=mxgraph.aws4.ec2;" vertex="1" parent="106">
                    <mxGeometry x="80" y="121" width="78" height="78" as="geometry"/>
                </mxCell>
                <mxCell id="163" value="EC2&lt;div&gt;(Debug Instance)&lt;/div&gt;" style="text;html=1;align=center;verticalAlign=middle;whiteSpace=wrap;rounded=0;" vertex="1" parent="106">
                    <mxGeometry x="69.5" y="204" width="99" height="30" as="geometry"/>
                </mxCell>
                <mxCell id="164" style="edgeStyle=none;html=1;entryX=0;entryY=0.5;entryDx=0;entryDy=0;entryPerimeter=0;" edge="1" parent="106" source="162" target="130">
                    <mxGeometry relative="1" as="geometry"/>
                </mxCell>
                <mxCell id="166" value="HTTP" style="edgeLabel;html=1;align=center;verticalAlign=middle;resizable=0;points=[];" vertex="1" connectable="0" parent="164">
                    <mxGeometry x="0.0339" y="-2" relative="1" as="geometry">
                        <mxPoint as="offset"/>
                    </mxGeometry>
                </mxCell>
            </root>
        </mxGraphModel>
    </diagram>
</mxfile>